<svg id="svg" version="1.1" width="400" height="400" viewBox="0 0 400 400" xmlns="http://www.w3.org/2000/svg" xmlns:xlink="http://www.w3.org/1999/xlink"><g id="svgg"><path id="path0" d="M182.400 307.967 C 182.400 308.169,180.105 308.430,177.300 308.546 C 174.495 308.662,171.120 308.858,169.800 308.981 C 168.480 309.104,166.140 309.308,164.600 309.435 C 163.060 309.561,161.629 309.830,161.420 310.032 C 161.211 310.235,160.101 310.400,158.953 310.400 C 157.806 310.400,156.807 310.564,156.733 310.764 C 156.660 310.965,155.880 311.183,155.000 311.250 C 154.120 311.316,153.305 311.503,153.190 311.664 C 153.074 311.825,152.219 312.002,151.290 312.057 C 150.360 312.112,149.600 312.301,149.600 312.478 C 149.600 312.655,148.880 312.800,148.000 312.800 C 147.120 312.800,146.400 312.980,146.400 313.200 C 146.400 313.420,145.759 313.600,144.976 313.600 C 144.129 313.600,143.653 313.762,143.800 314.000 C 144.008 314.337,142.572 314.617,141.500 314.447 C 141.335 314.421,141.200 314.580,141.200 314.800 C 141.200 315.020,140.761 315.200,140.224 315.200 C 139.687 315.200,139.136 315.380,139.000 315.600 C 138.864 315.820,138.485 316.000,138.157 316.000 C 137.829 316.000,136.816 316.360,135.906 316.800 C 134.995 317.240,134.014 317.600,133.725 317.600 C 133.436 317.600,133.200 317.736,133.200 317.902 C 133.200 318.225,131.142 319.239,130.791 319.089 C 130.675 319.040,130.147 319.405,129.615 319.900 C 129.084 320.395,128.402 320.800,128.101 320.800 C 127.799 320.800,127.664 320.980,127.800 321.200 C 127.936 321.420,127.767 321.600,127.424 321.600 C 127.081 321.600,126.800 321.762,126.800 321.960 C 126.800 322.158,126.215 322.927,125.500 323.668 C 124.785 324.410,123.975 325.415,123.700 325.903 C 123.104 326.960,123.020 332.400,123.600 332.400 C 123.820 332.400,124.000 332.686,124.000 333.035 C 124.000 333.731,128.112 338.000,128.783 338.000 C 129.012 338.000,129.200 338.191,129.200 338.424 C 129.200 338.657,129.368 338.744,129.572 338.617 C 129.777 338.491,130.070 338.590,130.224 338.839 C 130.577 339.410,134.042 340.993,134.670 340.871 C 134.928 340.820,135.254 340.964,135.393 341.189 C 135.533 341.415,135.997 341.600,136.424 341.600 C 136.851 341.600,137.200 341.780,137.200 342.000 C 137.200 342.220,137.639 342.400,138.176 342.400 C 138.713 342.400,139.264 342.580,139.400 342.800 C 139.536 343.020,139.997 343.200,140.424 343.200 C 140.851 343.200,141.200 343.380,141.200 343.600 C 141.200 343.820,141.931 344.000,142.824 344.000 C 143.804 344.000,144.349 344.158,144.200 344.400 C 144.053 344.638,144.529 344.800,145.376 344.800 C 146.159 344.800,146.800 344.980,146.800 345.200 C 146.800 345.420,147.430 345.600,148.200 345.600 C 148.970 345.600,149.600 345.780,149.600 346.000 C 149.600 346.220,150.500 346.400,151.600 346.400 C 152.700 346.400,153.600 346.580,153.600 346.800 C 153.600 347.020,154.489 347.200,155.576 347.200 C 156.663 347.200,157.664 347.380,157.800 347.600 C 157.936 347.820,158.937 348.000,160.024 348.000 C 161.111 348.000,162.000 348.180,162.000 348.400 C 162.000 348.629,163.200 348.800,164.800 348.800 C 166.400 348.800,167.600 348.971,167.600 349.200 C 167.600 349.435,168.992 349.600,170.976 349.600 C 172.833 349.600,174.464 349.780,174.600 350.000 C 174.741 350.229,176.796 350.400,179.400 350.400 C 182.093 350.400,184.057 350.568,184.208 350.812 C 184.539 351.349,216.000 351.311,216.000 350.774 C 216.000 350.562,218.174 350.400,221.024 350.400 C 224.271 350.400,225.960 350.259,225.800 350.000 C 225.643 349.745,226.788 349.600,228.953 349.600 C 230.823 349.600,232.464 349.420,232.600 349.200 C 232.736 348.980,234.086 348.800,235.600 348.800 C 237.114 348.800,238.464 348.620,238.600 348.400 C 238.736 348.180,239.737 348.000,240.824 348.000 C 241.911 348.000,242.800 347.820,242.800 347.600 C 242.800 347.380,243.790 347.200,245.000 347.200 C 246.210 347.200,247.200 347.020,247.200 346.800 C 247.200 346.580,247.920 346.400,248.800 346.400 C 249.680 346.400,250.400 346.220,250.400 346.000 C 250.400 345.780,251.120 345.600,252.000 345.600 C 252.880 345.600,253.600 345.420,253.600 345.200 C 253.600 344.980,254.219 344.800,254.976 344.800 C 255.733 344.800,256.464 344.620,256.600 344.400 C 256.736 344.180,257.287 344.000,257.824 344.000 C 258.361 344.000,258.800 343.820,258.800 343.600 C 258.800 343.380,259.340 343.200,260.000 343.200 C 260.660 343.200,261.200 343.020,261.200 342.800 C 261.200 342.580,261.740 342.400,262.400 342.400 C 263.060 342.400,263.600 342.220,263.600 342.000 C 263.600 341.780,263.915 341.599,264.300 341.598 C 264.685 341.596,265.516 341.326,266.146 340.998 C 266.776 340.669,267.541 340.400,267.846 340.400 C 268.151 340.400,268.400 340.220,268.400 340.000 C 268.400 339.780,268.648 339.600,268.951 339.600 C 269.254 339.600,269.724 339.332,269.996 339.004 C 270.268 338.677,270.627 338.493,270.793 338.596 C 270.959 338.698,271.729 338.167,272.504 337.414 C 273.279 336.662,274.051 336.171,274.221 336.323 C 274.390 336.475,274.404 336.383,274.251 336.118 C 274.089 335.834,274.393 335.361,274.987 334.972 C 275.544 334.607,276.000 334.059,276.000 333.754 C 276.000 333.449,276.180 333.200,276.400 333.200 C 276.620 333.200,276.800 332.671,276.800 332.024 C 276.800 331.377,276.980 330.736,277.200 330.600 C 277.420 330.464,277.600 329.744,277.600 329.000 C 277.600 328.256,277.420 327.536,277.200 327.400 C 276.980 327.264,276.800 326.803,276.800 326.376 C 276.800 325.949,276.620 325.600,276.400 325.600 C 276.180 325.600,276.000 325.312,276.000 324.960 C 276.000 324.204,272.512 320.800,271.736 320.800 C 271.441 320.800,271.200 320.620,271.200 320.400 C 271.200 320.180,270.930 320.000,270.600 320.000 C 270.270 320.000,270.000 319.841,270.000 319.646 C 270.000 319.451,269.415 319.022,268.700 318.693 C 266.596 317.725,263.415 316.371,261.200 315.500 C 260.650 315.284,259.887 314.948,259.505 314.753 C 259.123 314.559,258.268 314.400,257.605 314.400 C 256.942 314.400,256.400 314.220,256.400 314.000 C 256.400 313.780,255.961 313.600,255.424 313.600 C 254.887 313.600,254.360 313.459,254.254 313.287 C 254.148 313.115,253.465 312.929,252.737 312.874 C 252.009 312.818,251.239 312.599,251.027 312.387 C 250.814 312.174,250.124 312.000,249.494 312.000 C 248.863 312.000,248.029 311.830,247.641 311.622 C 247.252 311.414,246.084 311.200,245.044 311.146 C 244.004 311.092,243.063 310.902,242.953 310.724 C 242.843 310.546,241.899 310.400,240.856 310.400 C 239.813 310.400,238.789 310.240,238.580 310.043 C 238.000 309.499,232.238 308.949,222.900 308.548 C 219.985 308.422,217.600 308.158,217.600 307.960 C 217.600 306.973,214.119 307.615,213.066 308.797 C 212.480 309.455,212.000 310.091,212.000 310.210 C 212.000 310.329,210.740 312.305,209.200 314.600 C 207.660 316.895,206.400 318.959,206.400 319.187 C 206.400 319.414,206.220 319.600,206.000 319.600 C 205.780 319.600,205.600 319.775,205.600 319.989 C 205.600 320.494,200.838 327.762,200.403 327.921 C 199.867 328.118,192.000 316.559,192.000 315.574 C 192.000 315.368,191.820 315.200,191.600 315.200 C 191.380 315.200,191.200 315.012,191.200 314.782 C 191.200 314.277,187.244 308.322,186.632 307.906 C 186.006 307.480,182.400 307.533,182.400 307.967 " stroke="none" fill="#ccdbdb" fill-rule="evenodd"></path><path id="path1" d="M192.800 107.794 C 154.797 115.378,146.876 166.403,180.918 184.339 C 216.488 203.080,254.861 165.392,236.778 129.476 C 233.667 123.297,224.378 113.200,221.804 113.200 C 221.650 113.200,221.046 112.869,220.462 112.463 C 214.530 108.349,201.252 106.107,192.800 107.794 " stroke="none" fill="#c42c2c" fill-rule="evenodd"></path><path id="path2" d="M199.600 50.000 C 199.600 50.249,197.267 50.400,193.400 50.400 C 189.533 50.400,187.200 50.551,187.200 50.800 C 187.200 51.022,186.133 51.200,184.800 51.200 C 183.467 51.200,182.400 51.378,182.400 51.600 C 182.400 51.820,181.500 52.000,180.400 52.000 C 179.300 52.000,178.400 52.180,178.400 52.400 C 178.400 52.620,177.590 52.800,176.600 52.800 C 175.610 52.800,174.800 52.980,174.800 53.200 C 174.800 53.420,174.260 53.600,173.600 53.600 C 172.940 53.600,172.400 53.780,172.400 54.000 C 172.400 54.220,171.871 54.400,171.224 54.400 C 170.577 54.400,169.936 54.580,169.800 54.800 C 169.664 55.020,169.113 55.200,168.576 55.200 C 168.039 55.200,167.600 55.380,167.600 55.600 C 167.600 55.820,167.060 56.000,166.400 56.000 C 165.740 56.000,165.200 56.180,165.200 56.400 C 165.200 56.620,164.761 56.800,164.224 56.800 C 163.687 56.800,163.136 56.980,163.000 57.200 C 162.864 57.420,162.393 57.600,161.953 57.600 C 161.513 57.600,161.264 57.780,161.400 58.000 C 161.540 58.226,161.212 58.400,160.647 58.400 C 160.097 58.400,159.534 58.583,159.396 58.807 C 159.258 59.030,158.977 59.109,158.772 58.983 C 158.568 58.856,158.400 58.943,158.400 59.176 C 158.400 59.409,158.265 59.557,158.100 59.505 C 157.611 59.350,155.200 60.467,155.200 60.849 C 155.200 61.042,154.966 61.200,154.680 61.200 C 153.944 61.200,152.007 62.141,152.003 62.500 C 152.001 62.665,151.640 62.800,151.200 62.800 C 150.760 62.800,150.400 62.980,150.400 63.200 C 150.400 63.420,150.175 63.600,149.900 63.600 C 149.625 63.601,148.882 64.047,148.248 64.592 C 147.614 65.137,146.958 65.498,146.790 65.394 C 146.621 65.290,146.381 65.474,146.254 65.803 C 146.128 66.132,145.389 66.704,144.612 67.075 C 143.836 67.445,143.200 67.895,143.200 68.074 C 143.200 68.253,143.002 68.400,142.760 68.400 C 142.519 68.400,141.817 68.940,141.200 69.600 C 140.583 70.260,139.870 70.800,139.614 70.800 C 139.358 70.800,138.271 71.700,137.200 72.800 C 136.129 73.900,135.105 74.800,134.926 74.800 C 134.382 74.801,132.400 76.660,132.400 77.170 C 132.400 77.433,132.241 77.549,132.047 77.429 C 131.697 77.213,127.920 81.085,126.000 83.628 C 125.450 84.356,124.595 85.360,124.100 85.858 C 123.605 86.356,123.200 86.970,123.200 87.221 C 123.200 87.473,122.660 88.183,122.000 88.800 C 121.340 89.417,120.800 90.137,120.800 90.400 C 120.800 90.663,120.260 91.383,119.600 92.000 C 118.940 92.617,118.400 93.319,118.400 93.560 C 118.400 93.802,118.220 94.000,118.000 94.000 C 117.780 94.000,117.600 94.358,117.600 94.797 C 117.600 95.235,117.240 95.818,116.800 96.093 C 116.360 96.368,116.000 96.909,116.000 97.296 C 116.000 97.683,115.820 98.000,115.600 98.000 C 115.380 98.000,115.200 98.360,115.200 98.800 C 115.200 99.240,115.020 99.600,114.800 99.600 C 114.580 99.600,114.400 99.836,114.400 100.125 C 114.400 100.413,114.040 101.036,113.600 101.508 C 113.160 101.980,112.800 102.644,112.800 102.983 C 112.800 103.322,112.620 103.600,112.400 103.600 C 112.180 103.600,112.000 103.960,112.000 104.400 C 112.000 104.840,111.820 105.200,111.600 105.200 C 111.380 105.200,111.200 105.524,111.200 105.920 C 111.200 106.316,111.047 106.811,110.860 107.020 C 110.306 107.638,108.400 112.740,108.400 113.604 C 108.400 114.042,108.220 114.400,108.000 114.400 C 107.780 114.400,107.600 114.940,107.600 115.600 C 107.600 116.260,107.420 116.800,107.200 116.800 C 106.980 116.800,106.800 117.430,106.800 118.200 C 106.800 118.970,106.620 119.600,106.400 119.600 C 106.180 119.600,106.000 120.129,106.000 120.776 C 106.000 121.423,105.820 122.064,105.600 122.200 C 105.380 122.336,105.200 123.067,105.200 123.824 C 105.200 124.581,105.020 125.200,104.800 125.200 C 104.580 125.200,104.400 125.909,104.400 126.776 C 104.400 127.643,104.220 128.464,104.000 128.600 C 103.780 128.736,103.600 129.927,103.600 131.247 C 103.600 132.745,103.450 133.554,103.200 133.400 C 102.945 133.242,102.800 134.463,102.800 136.776 C 102.800 139.022,102.642 140.400,102.383 140.400 C 101.624 140.400,102.440 161.368,103.230 162.180 C 103.434 162.389,103.600 163.593,103.600 164.856 C 103.600 166.119,103.780 167.264,104.000 167.400 C 104.220 167.536,104.400 168.357,104.400 169.224 C 104.400 170.091,104.580 170.800,104.800 170.800 C 105.020 170.800,105.200 171.419,105.200 172.176 C 105.200 172.933,105.380 173.664,105.600 173.800 C 105.820 173.936,106.000 174.476,106.000 175.000 C 106.000 175.524,106.180 176.064,106.400 176.200 C 106.620 176.336,106.800 177.067,106.800 177.824 C 106.800 178.581,106.980 179.200,107.200 179.200 C 107.420 179.200,107.600 179.549,107.600 179.976 C 107.600 180.403,107.780 180.864,108.000 181.000 C 108.220 181.136,108.400 181.602,108.400 182.036 C 108.400 182.471,108.698 183.495,109.062 184.313 C 109.426 185.131,109.696 185.935,109.662 186.100 C 109.628 186.265,109.742 186.400,109.915 186.400 C 110.088 186.400,110.258 186.780,110.293 187.245 C 110.328 187.709,110.665 188.429,111.041 188.845 C 111.416 189.260,111.584 189.600,111.413 189.600 C 111.242 189.600,111.285 189.825,111.508 190.100 C 112.297 191.071,113.600 193.632,113.600 194.212 C 113.600 194.535,113.780 194.800,114.000 194.800 C 114.220 194.800,114.400 195.042,114.400 195.338 C 114.400 195.634,114.760 196.202,115.200 196.600 C 115.640 196.998,116.000 197.656,116.000 198.062 C 116.000 198.468,116.180 198.800,116.400 198.800 C 116.620 198.800,116.800 199.036,116.800 199.325 C 116.800 199.613,117.115 200.198,117.500 200.625 C 117.885 201.051,118.455 201.895,118.768 202.500 C 119.080 203.105,119.485 203.600,119.668 203.600 C 119.850 203.600,120.000 203.948,120.000 204.373 C 120.000 204.798,120.360 205.260,120.800 205.400 C 121.240 205.540,121.600 205.929,121.600 206.265 C 121.600 206.898,123.132 209.299,123.686 209.533 C 123.858 209.607,124.000 209.946,124.000 210.286 C 124.000 210.627,124.372 211.229,124.826 211.623 C 125.281 212.017,125.614 212.398,125.568 212.470 C 125.366 212.779,126.088 214.400,126.427 214.400 C 126.632 214.400,126.800 214.636,126.800 214.925 C 126.800 215.213,127.156 215.831,127.591 216.299 C 128.027 216.766,128.432 217.378,128.491 217.659 C 128.551 217.940,128.995 218.615,129.479 219.158 C 129.962 219.701,130.266 220.293,130.155 220.473 C 130.044 220.653,130.143 220.800,130.376 220.800 C 130.609 220.800,130.800 221.070,130.800 221.400 C 130.800 221.730,130.980 222.000,131.200 222.000 C 131.420 222.000,131.600 222.281,131.600 222.624 C 131.600 222.967,131.780 223.136,132.000 223.000 C 132.220 222.864,132.400 223.084,132.400 223.488 C 132.400 223.893,132.760 224.483,133.200 224.800 C 133.640 225.117,134.000 225.614,134.000 225.905 C 134.000 226.196,134.336 226.794,134.746 227.234 C 135.157 227.675,135.905 228.837,136.409 229.818 C 136.913 230.798,137.477 231.600,137.663 231.600 C 137.848 231.600,138.000 231.878,138.000 232.218 C 138.000 232.558,138.436 233.272,138.969 233.805 C 139.502 234.338,140.054 235.140,140.196 235.587 C 140.338 236.034,140.622 236.400,140.827 236.400 C 141.032 236.400,141.200 236.760,141.200 237.200 C 141.200 237.640,141.380 238.000,141.600 238.000 C 141.820 238.000,142.000 238.270,142.000 238.600 C 142.000 238.930,142.191 239.200,142.424 239.200 C 142.657 239.200,142.735 239.381,142.598 239.603 C 142.461 239.824,142.614 240.107,142.939 240.232 C 143.263 240.356,143.637 240.895,143.772 241.429 C 143.906 241.963,144.192 242.400,144.408 242.400 C 144.623 242.400,144.800 242.694,144.800 243.053 C 144.800 243.412,145.149 244.009,145.575 244.378 C 146.001 244.748,146.406 245.309,146.475 245.625 C 146.544 245.941,146.915 246.435,147.300 246.723 C 147.685 247.010,148.000 247.529,148.000 247.876 C 148.000 248.222,148.388 248.842,148.861 249.253 C 149.335 249.664,149.577 250.000,149.399 250.000 C 149.221 250.000,149.337 250.315,149.655 250.700 C 149.974 251.085,150.482 251.895,150.785 252.500 C 151.088 253.105,151.485 253.600,151.668 253.600 C 151.850 253.600,152.000 253.836,152.000 254.125 C 152.000 254.413,152.315 254.998,152.700 255.425 C 153.085 255.851,153.654 256.692,153.964 257.293 C 154.274 257.895,154.859 258.742,155.264 259.177 C 155.669 259.611,156.000 260.204,156.000 260.495 C 156.000 260.786,156.360 261.283,156.800 261.600 C 157.240 261.917,157.600 262.497,157.600 262.888 C 157.600 263.280,157.758 263.600,157.951 263.600 C 158.145 263.600,158.533 264.155,158.814 264.834 C 159.095 265.513,159.522 266.283,159.763 266.546 C 160.400 267.243,161.614 269.289,161.871 270.100 C 161.993 270.485,162.252 270.800,162.447 270.800 C 162.641 270.800,162.800 271.070,162.800 271.400 C 162.800 271.730,162.980 272.000,163.200 272.000 C 163.420 272.000,163.600 272.281,163.600 272.624 C 163.600 272.967,163.780 273.136,164.000 273.000 C 164.351 272.783,164.464 273.036,164.374 273.830 C 164.359 273.957,164.674 274.362,165.074 274.731 C 165.891 275.486,167.136 277.443,167.471 278.500 C 167.593 278.885,167.852 279.200,168.047 279.200 C 168.241 279.200,168.400 279.436,168.400 279.725 C 168.400 280.013,168.760 280.636,169.200 281.108 C 169.640 281.580,170.000 282.204,170.000 282.495 C 170.000 282.786,170.360 283.283,170.800 283.600 C 171.240 283.917,171.600 284.457,171.600 284.800 C 171.600 285.143,171.960 285.683,172.400 286.000 C 172.840 286.317,173.200 286.897,173.200 287.288 C 173.200 287.680,173.380 288.000,173.600 288.000 C 173.820 288.000,174.000 288.281,174.000 288.624 C 174.000 288.967,174.180 289.136,174.400 289.000 C 174.620 288.864,174.800 289.040,174.800 289.390 C 174.800 289.948,175.797 291.833,176.391 292.400 C 176.507 292.510,176.856 293.095,177.168 293.700 C 177.480 294.305,177.885 294.800,178.068 294.800 C 178.250 294.800,178.400 295.171,178.400 295.624 C 178.400 296.077,178.580 296.336,178.800 296.200 C 179.020 296.064,179.200 296.233,179.200 296.576 C 179.200 296.919,179.380 297.200,179.600 297.200 C 179.820 297.200,180.000 297.520,180.000 297.912 C 180.000 298.303,180.350 298.876,180.779 299.185 C 181.207 299.493,181.475 299.878,181.375 300.041 C 181.275 300.203,181.419 300.575,181.696 300.868 C 181.973 301.160,182.455 301.895,182.768 302.500 C 183.080 303.105,183.463 303.600,183.619 303.600 C 183.775 303.600,184.127 304.140,184.400 304.800 C 184.673 305.460,185.055 306.000,185.249 306.000 C 185.442 306.000,185.600 306.262,185.600 306.581 C 185.600 306.901,186.185 307.444,186.900 307.788 C 187.969 308.303,190.800 311.805,190.800 312.612 C 190.800 312.734,190.982 313.051,191.205 313.317 C 191.429 313.583,193.469 316.670,195.739 320.178 C 198.010 323.686,200.033 326.605,200.234 326.666 C 200.562 326.764,205.011 320.148,206.322 317.611 C 207.450 315.429,212.644 308.234,213.383 307.829 C 214.502 307.216,215.200 306.524,215.200 306.029 C 215.200 305.793,215.380 305.600,215.600 305.600 C 215.820 305.600,216.000 305.332,216.000 305.005 C 216.000 304.457,216.630 303.522,217.900 302.184 C 218.175 301.894,218.400 301.414,218.400 301.117 C 218.400 300.820,218.760 300.317,219.200 300.000 C 219.640 299.683,220.000 299.103,220.000 298.712 C 220.000 298.320,220.180 298.000,220.400 298.000 C 220.620 298.000,220.800 297.730,220.800 297.400 C 220.800 297.070,220.980 296.800,221.200 296.800 C 221.420 296.800,221.600 296.530,221.600 296.200 C 221.600 295.870,221.768 295.600,221.973 295.600 C 222.178 295.600,222.460 295.241,222.599 294.802 C 222.738 294.364,223.104 293.753,223.412 293.445 C 223.720 293.137,224.023 292.646,224.086 292.352 C 224.149 292.059,224.425 291.577,224.700 291.281 C 224.975 290.985,225.200 290.385,225.200 289.948 C 225.200 289.511,225.380 289.264,225.600 289.400 C 225.820 289.536,226.000 289.356,226.000 289.000 C 226.000 288.613,226.185 288.467,226.462 288.638 C 226.738 288.809,226.815 288.749,226.654 288.488 C 226.506 288.248,226.793 287.627,227.292 287.108 C 227.792 286.588,228.249 285.935,228.309 285.656 C 228.368 285.376,228.773 284.766,229.209 284.299 C 229.644 283.831,230.000 283.213,230.000 282.925 C 230.000 282.636,230.135 282.397,230.300 282.394 C 230.465 282.390,231.040 281.490,231.579 280.394 C 232.117 279.297,232.702 278.400,232.879 278.400 C 233.055 278.400,233.200 278.130,233.200 277.800 C 233.200 277.470,233.380 277.200,233.600 277.200 C 233.820 277.200,234.000 276.970,234.000 276.688 C 234.000 276.407,234.360 275.917,234.800 275.600 C 235.240 275.283,235.600 274.871,235.600 274.684 C 235.600 274.497,236.140 273.559,236.800 272.600 C 237.460 271.641,238.000 270.663,238.000 270.428 C 238.000 270.193,238.191 270.000,238.424 270.000 C 238.657 270.000,238.748 269.839,238.626 269.642 C 238.504 269.445,238.674 269.181,239.002 269.054 C 239.331 268.928,239.600 268.549,239.600 268.213 C 239.600 267.876,239.780 267.600,240.000 267.600 C 240.220 267.600,240.400 267.317,240.400 266.971 C 240.400 266.626,240.625 266.092,240.900 265.785 C 242.144 264.398,242.400 263.994,242.400 263.417 C 242.400 263.078,242.580 262.800,242.800 262.800 C 243.020 262.800,243.200 262.564,243.200 262.275 C 243.200 261.987,243.560 261.364,244.000 260.892 C 244.440 260.420,244.800 259.796,244.800 259.505 C 244.800 259.214,245.160 258.717,245.600 258.400 C 246.040 258.083,246.400 257.593,246.400 257.312 C 246.400 257.030,246.580 256.800,246.800 256.800 C 247.020 256.800,247.200 256.530,247.200 256.200 C 247.200 255.870,247.380 255.600,247.600 255.600 C 247.820 255.600,248.000 255.330,248.000 255.000 C 248.000 254.670,248.180 254.400,248.400 254.400 C 248.620 254.400,248.800 254.029,248.800 253.576 C 248.800 253.123,248.980 252.864,249.200 253.000 C 249.420 253.136,249.600 252.967,249.600 252.624 C 249.600 252.281,249.780 252.000,250.000 252.000 C 250.220 252.000,250.400 251.680,250.400 251.288 C 250.400 250.897,250.760 250.317,251.200 250.000 C 251.640 249.683,252.000 249.103,252.000 248.712 C 252.000 248.320,252.180 248.000,252.400 248.000 C 252.620 248.000,252.800 247.719,252.800 247.376 C 252.800 247.007,252.988 246.869,253.262 247.038 C 253.527 247.202,253.616 247.149,253.470 246.914 C 253.331 246.689,253.663 245.986,254.208 245.352 C 254.753 244.718,255.199 244.052,255.200 243.871 C 255.200 243.691,255.472 243.271,255.804 242.939 C 256.136 242.607,256.305 242.170,256.180 241.968 C 256.055 241.765,256.115 241.600,256.313 241.600 C 256.512 241.600,257.013 240.970,257.428 240.200 C 257.843 239.430,258.321 238.800,258.491 238.800 C 258.661 238.800,258.800 238.480,258.800 238.088 C 258.800 237.697,259.160 237.117,259.600 236.800 C 260.040 236.483,260.400 235.903,260.400 235.512 C 260.400 235.120,260.552 234.800,260.737 234.800 C 260.923 234.800,261.487 233.998,261.991 233.018 C 262.495 232.037,263.243 230.875,263.654 230.434 C 264.064 229.994,264.400 229.396,264.400 229.105 C 264.400 228.814,264.760 228.317,265.200 228.000 C 265.640 227.683,266.000 227.143,266.000 226.800 C 266.000 226.457,266.360 225.917,266.800 225.600 C 267.240 225.283,267.600 224.871,267.600 224.684 C 267.600 224.497,268.140 223.559,268.800 222.600 C 269.460 221.641,270.000 220.663,270.000 220.428 C 270.000 220.193,270.158 220.000,270.351 220.000 C 270.545 220.000,270.927 219.460,271.200 218.800 C 271.473 218.140,271.833 217.600,272.000 217.600 C 272.167 217.600,272.527 217.060,272.800 216.400 C 273.073 215.740,273.424 215.200,273.578 215.200 C 273.733 215.200,274.358 214.120,274.968 212.800 C 275.577 211.480,276.239 210.400,276.438 210.400 C 276.637 210.400,276.800 210.080,276.800 209.688 C 276.800 209.297,277.160 208.717,277.600 208.400 C 278.040 208.083,278.400 207.676,278.400 207.495 C 278.400 207.314,278.760 206.780,279.200 206.308 C 279.640 205.836,280.000 205.213,280.000 204.925 C 280.000 204.636,280.180 204.400,280.400 204.400 C 280.620 204.400,280.800 204.029,280.800 203.576 C 280.800 203.123,280.980 202.864,281.200 203.000 C 281.420 203.136,281.600 202.967,281.600 202.624 C 281.600 202.281,281.780 202.000,282.000 202.000 C 282.220 202.000,282.400 201.680,282.400 201.288 C 282.400 200.897,282.760 200.317,283.200 200.000 C 283.640 199.683,284.000 199.186,284.000 198.895 C 284.000 198.604,284.360 197.980,284.800 197.508 C 285.240 197.036,285.600 196.312,285.600 195.901 C 285.600 195.489,285.780 195.264,286.000 195.400 C 286.220 195.536,286.400 195.277,286.400 194.824 C 286.400 194.371,286.580 194.000,286.800 194.000 C 287.020 194.000,287.200 193.640,287.200 193.200 C 287.200 192.760,287.391 192.400,287.624 192.400 C 287.857 192.400,287.949 192.240,287.828 192.045 C 287.707 191.850,287.875 191.470,288.200 191.200 C 288.525 190.930,288.700 190.562,288.589 190.382 C 288.478 190.202,288.570 189.942,288.795 189.803 C 289.452 189.397,290.942 185.880,290.873 184.900 C 290.838 184.405,290.987 184.000,291.204 184.000 C 291.422 184.000,291.600 183.651,291.600 183.224 C 291.600 182.797,291.780 182.336,292.000 182.200 C 292.220 182.064,292.400 181.513,292.400 180.976 C 292.400 180.439,292.580 180.000,292.800 180.000 C 293.020 180.000,293.200 179.460,293.200 178.800 C 293.200 178.140,293.380 177.600,293.600 177.600 C 293.820 177.600,294.000 177.060,294.000 176.400 C 294.000 175.740,294.180 175.200,294.400 175.200 C 294.620 175.200,294.800 174.570,294.800 173.800 C 294.800 173.030,294.980 172.400,295.200 172.400 C 295.420 172.400,295.600 171.680,295.600 170.800 C 295.600 169.920,295.780 169.200,296.000 169.200 C 296.220 169.200,296.400 168.210,296.400 167.000 C 296.400 165.790,296.580 164.800,296.800 164.800 C 297.020 164.800,297.200 163.821,297.200 162.624 C 297.200 161.427,297.380 160.336,297.600 160.200 C 297.852 160.044,298.000 155.537,298.000 148.000 C 298.000 140.463,297.852 135.956,297.600 135.800 C 297.380 135.664,297.200 134.483,297.200 133.176 C 297.200 131.859,297.022 130.800,296.800 130.800 C 296.580 130.800,296.400 129.911,296.400 128.824 C 296.400 127.737,296.220 126.736,296.000 126.600 C 295.780 126.464,295.600 125.643,295.600 124.776 C 295.600 123.909,295.420 123.200,295.200 123.200 C 294.980 123.200,294.800 122.660,294.800 122.000 C 294.800 121.340,294.620 120.800,294.400 120.800 C 294.180 120.800,294.000 120.069,294.000 119.176 C 294.000 118.196,293.842 117.651,293.600 117.800 C 293.362 117.947,293.200 117.471,293.200 116.624 C 293.200 115.841,293.020 115.200,292.800 115.200 C 292.580 115.200,292.400 114.739,292.400 114.176 C 292.400 113.596,292.227 113.260,292.000 113.400 C 291.767 113.544,291.600 113.137,291.600 112.424 C 291.600 111.751,291.426 111.200,291.213 111.200 C 290.999 111.200,290.920 110.953,291.036 110.652 C 291.151 110.350,290.996 109.853,290.690 109.548 C 290.151 109.008,289.402 106.905,289.534 106.300 C 289.570 106.135,289.420 106.000,289.200 106.000 C 288.980 106.000,288.800 105.640,288.800 105.200 C 288.800 104.760,288.620 104.400,288.400 104.400 C 288.180 104.400,288.000 104.040,288.000 103.600 C 288.000 103.160,287.820 102.800,287.600 102.800 C 287.380 102.800,287.200 102.440,287.200 102.000 C 287.200 101.560,287.020 101.200,286.800 101.200 C 286.580 101.200,286.400 100.958,286.400 100.662 C 286.400 100.366,286.040 99.798,285.600 99.400 C 285.160 99.002,284.800 98.344,284.800 97.938 C 284.800 97.532,284.620 97.200,284.400 97.200 C 284.180 97.200,284.000 96.964,284.000 96.675 C 284.000 96.387,283.664 95.791,283.254 95.350 C 282.844 94.910,282.275 94.111,281.991 93.575 C 281.706 93.039,281.142 92.365,280.737 92.077 C 280.331 91.790,280.000 91.295,280.000 90.977 C 280.000 90.660,279.820 90.400,279.600 90.400 C 279.380 90.400,279.200 90.152,279.200 89.848 C 279.200 89.545,278.480 88.555,277.600 87.648 C 276.720 86.741,276.000 85.825,276.000 85.613 C 276.000 84.608,263.760 72.400,262.753 72.400 C 262.525 72.400,261.646 71.680,260.800 70.800 C 259.954 69.920,259.018 69.200,258.720 69.200 C 258.421 69.200,257.917 68.840,257.600 68.400 C 257.283 67.960,256.673 67.600,256.245 67.600 C 255.817 67.600,255.578 67.489,255.714 67.352 C 256.047 67.019,254.994 66.000,254.317 66.000 C 254.020 66.000,253.524 65.650,253.215 65.221 C 252.907 64.793,252.522 64.525,252.359 64.625 C 252.197 64.725,251.825 64.579,251.532 64.299 C 251.240 64.019,250.474 63.523,249.831 63.195 C 247.562 62.040,247.200 61.807,247.200 61.505 C 247.200 61.337,246.840 61.200,246.400 61.200 C 245.960 61.200,245.600 61.020,245.600 60.800 C 245.600 60.580,245.240 60.400,244.800 60.400 C 244.360 60.400,244.000 60.220,244.000 60.000 C 244.000 59.780,243.651 59.600,243.224 59.600 C 242.797 59.600,242.328 59.408,242.183 59.173 C 242.038 58.938,241.667 58.842,241.360 58.960 C 241.052 59.078,240.800 59.001,240.800 58.787 C 240.800 58.574,240.440 58.400,240.000 58.400 C 239.560 58.400,239.200 58.220,239.200 58.000 C 239.200 57.780,238.750 57.600,238.200 57.600 C 237.650 57.600,237.200 57.420,237.200 57.200 C 237.200 56.980,236.840 56.800,236.400 56.800 C 235.960 56.800,235.600 56.620,235.600 56.400 C 235.600 56.180,235.060 56.000,234.400 56.000 C 233.740 56.000,233.200 55.820,233.200 55.600 C 233.200 55.380,232.570 55.200,231.800 55.200 C 231.030 55.200,230.400 55.020,230.400 54.800 C 230.400 54.580,229.950 54.400,229.400 54.400 C 228.850 54.400,228.400 54.220,228.400 54.000 C 228.400 53.780,227.695 53.600,226.833 53.600 C 225.972 53.600,225.207 53.429,225.133 53.220 C 225.060 53.011,224.223 52.795,223.274 52.740 C 222.325 52.685,221.460 52.496,221.351 52.320 C 221.242 52.144,220.533 52.000,219.776 52.000 C 219.019 52.000,218.400 51.820,218.400 51.600 C 218.400 51.371,217.200 51.200,215.600 51.200 C 214.000 51.200,212.800 51.029,212.800 50.800 C 212.800 50.552,210.600 50.400,207.000 50.400 C 203.400 50.400,201.200 50.248,201.200 50.000 C 201.200 49.780,200.840 49.600,200.400 49.600 C 199.960 49.600,199.600 49.780,199.600 50.000 M208.537 108.024 C 212.520 108.831,218.359 111.005,220.462 112.463 C 221.046 112.869,221.650 113.200,221.804 113.200 C 221.959 113.200,223.564 114.355,225.372 115.766 C 256.289 139.909,239.235 189.265,200.000 189.191 C 169.676 189.135,150.032 157.004,163.650 129.736 C 171.907 113.206,190.273 104.321,208.537 108.024 " stroke="none" fill="#f44434" fill-rule="evenodd"></path><path id="path3" d="M212.800 308.600 C 212.283 309.150,212.027 309.594,212.230 309.587 C 212.572 309.576,214.221 307.600,213.888 307.600 C 213.806 307.600,213.317 308.050,212.800 308.600 M188.637 310.500 C 189.449 311.765,190.188 312.800,190.279 312.800 C 190.547 312.800,189.100 310.482,188.090 309.294 C 187.579 308.692,187.825 309.235,188.637 310.500 M210.390 312.080 C 209.673 313.246,208.821 314.605,208.497 315.100 C 208.173 315.595,207.992 316.000,208.095 316.000 C 208.413 316.000,212.068 310.335,211.875 310.142 C 211.775 310.042,211.107 310.914,210.390 312.080 M192.000 315.805 C 192.000 316.090,195.682 321.600,195.873 321.600 C 196.107 321.600,195.232 320.045,193.678 317.700 C 192.375 315.733,192.000 315.310,192.000 315.805 M203.719 322.481 C 201.621 325.834,201.526 326.000,201.718 326.000 C 202.020 326.000,205.660 320.327,205.476 320.143 C 205.377 320.044,204.586 321.096,203.719 322.481 M197.354 324.200 C 197.709 324.750,198.311 325.695,198.691 326.300 C 199.903 328.231,200.545 328.432,201.244 327.100 C 201.709 326.213,201.704 326.211,200.886 326.936 C 200.066 327.664,200.039 327.647,198.572 325.436 C 197.755 324.206,197.002 323.200,196.897 323.200 C 196.793 323.200,196.999 323.650,197.354 324.200 " stroke="none" fill="#d4b4b4" fill-rule="evenodd"></path><path id="path4" d="M187.445 308.447 C 187.909 308.971,189.960 312.010,192.002 315.200 C 201.328 329.770,199.825 328.707,203.313 323.200 C 210.148 312.412,212.175 309.299,212.944 308.412 C 213.615 307.638,213.637 307.550,213.046 308.006 C 212.309 308.575,207.713 315.209,205.909 318.308 C 203.515 322.422,200.563 326.771,200.234 326.669 C 200.033 326.607,198.010 323.686,195.739 320.178 C 193.469 316.670,191.429 313.583,191.205 313.317 C 190.982 313.051,190.800 312.734,190.800 312.612 C 190.800 312.067,188.126 308.423,187.403 307.983 C 186.639 307.519,186.641 307.541,187.445 308.447 " stroke="none" fill="#e48c84" fill-rule="evenodd"></path></g></svg>