<svg id="svg" version="1.1" width="400" height="400" viewBox="0 0 400 400" xmlns="http://www.w3.org/2000/svg" xmlns:xlink="http://www.w3.org/1999/xlink"><g id="svgg"><path id="path0" d="M192.400 76.449 C 145.916 82.651,117.047 124.624,128.661 169.121 C 141.386 217.875,199.215 239.555,241.216 211.318 C 284.709 182.077,284.704 117.920,241.206 88.676 C 227.002 79.126,208.004 74.367,192.400 76.449 " stroke="none" fill="#fcfbfb" fill-rule="evenodd"></path><path id="path1" d="M181.300 0.274 C 179.705 0.363,178.400 0.607,178.400 0.818 C 178.400 1.028,177.230 1.200,175.800 1.200 C 174.333 1.200,173.200 1.374,173.200 1.600 C 173.200 1.820,172.300 2.000,171.200 2.000 C 170.100 2.000,169.200 2.180,169.200 2.400 C 169.200 2.620,168.480 2.800,167.600 2.800 C 166.720 2.800,166.000 2.980,166.000 3.200 C 166.000 3.420,165.201 3.600,164.224 3.600 C 163.247 3.600,162.336 3.780,162.200 4.000 C 162.064 4.220,161.423 4.400,160.776 4.400 C 160.129 4.400,159.600 4.580,159.600 4.800 C 159.600 5.020,158.970 5.200,158.200 5.200 C 157.430 5.200,156.800 5.380,156.800 5.600 C 156.800 5.820,156.260 6.000,155.600 6.000 C 154.940 6.000,154.400 6.180,154.400 6.400 C 154.400 6.620,153.860 6.800,153.200 6.800 C 152.540 6.800,152.000 6.980,152.000 7.200 C 152.000 7.420,151.460 7.600,150.800 7.600 C 150.140 7.600,149.600 7.780,149.600 8.000 C 149.600 8.220,149.132 8.400,148.560 8.400 C 147.621 8.400,145.772 9.049,143.905 10.034 C 143.523 10.235,142.938 10.400,142.605 10.400 C 142.272 10.400,142.000 10.547,142.000 10.728 C 142.000 10.908,141.100 11.300,140.000 11.600 C 138.900 11.900,138.000 12.292,138.000 12.472 C 138.000 12.653,137.640 12.800,137.200 12.800 C 136.760 12.800,136.400 12.980,136.400 13.200 C 136.400 13.420,136.040 13.600,135.600 13.600 C 135.160 13.600,134.800 13.780,134.800 14.000 C 134.800 14.220,134.440 14.400,134.000 14.400 C 133.560 14.400,133.200 14.580,133.200 14.800 C 133.200 15.020,132.840 15.200,132.400 15.200 C 131.960 15.200,131.600 15.380,131.600 15.600 C 131.600 15.820,131.240 16.000,130.800 16.000 C 130.360 16.000,130.000 16.180,130.000 16.400 C 130.000 16.620,129.640 16.800,129.200 16.800 C 128.760 16.800,128.400 16.980,128.400 17.200 C 128.400 17.420,128.164 17.600,127.875 17.600 C 127.587 17.600,126.964 17.960,126.492 18.400 C 126.020 18.840,125.446 19.200,125.217 19.200 C 124.988 19.200,124.800 19.380,124.800 19.600 C 124.800 19.820,124.440 20.000,124.000 20.000 C 123.560 20.000,123.200 20.180,123.200 20.400 C 123.200 20.620,122.880 20.800,122.488 20.800 C 122.097 20.800,121.517 21.160,121.200 21.600 C 120.883 22.040,120.343 22.400,120.000 22.400 C 119.657 22.400,119.117 22.760,118.800 23.200 C 118.483 23.640,117.986 24.000,117.695 24.000 C 117.404 24.000,116.949 24.181,116.683 24.402 C 116.417 24.623,114.964 25.633,113.452 26.647 C 110.293 28.766,109.596 29.311,107.760 31.100 C 107.027 31.815,106.229 32.400,105.987 32.400 C 105.746 32.400,104.671 33.300,103.600 34.400 C 102.529 35.500,101.458 36.400,101.221 36.400 C 100.649 36.400,88.000 49.034,88.000 49.606 C 88.000 49.851,87.100 50.929,86.000 52.000 C 84.900 53.071,84.000 54.118,84.000 54.326 C 84.000 54.534,83.280 55.445,82.400 56.352 C 81.520 57.259,80.800 58.101,80.800 58.224 C 80.800 58.445,78.638 61.307,77.726 62.292 C 77.466 62.574,77.138 63.164,76.999 63.602 C 76.860 64.041,76.606 64.400,76.434 64.400 C 76.262 64.400,75.797 65.120,75.400 66.000 C 75.003 66.880,74.526 67.600,74.339 67.600 C 74.153 67.600,74.000 67.920,74.000 68.312 C 74.000 68.703,73.640 69.283,73.200 69.600 C 72.760 69.917,72.400 70.497,72.400 70.888 C 72.400 71.280,72.220 71.600,72.000 71.600 C 71.780 71.600,71.600 71.878,71.600 72.217 C 71.600 72.556,71.240 73.220,70.800 73.692 C 70.360 74.164,70.000 74.787,70.000 75.075 C 70.000 75.364,69.820 75.600,69.600 75.600 C 69.380 75.600,69.200 75.870,69.200 76.200 C 69.200 76.530,69.020 76.800,68.800 76.800 C 68.580 76.800,68.400 77.160,68.400 77.600 C 68.400 78.040,68.220 78.400,68.000 78.400 C 67.780 78.400,67.600 78.760,67.600 79.200 C 67.600 79.640,67.420 80.000,67.200 80.000 C 66.980 80.000,66.800 80.360,66.800 80.800 C 66.800 81.240,66.620 81.600,66.400 81.600 C 66.180 81.600,66.000 81.960,66.000 82.400 C 66.000 82.840,65.820 83.200,65.600 83.200 C 65.380 83.200,65.200 83.560,65.200 84.000 C 65.200 84.440,65.020 84.800,64.800 84.800 C 64.580 84.800,64.400 85.160,64.400 85.600 C 64.400 86.040,64.220 86.400,64.000 86.400 C 63.780 86.400,63.600 86.749,63.600 87.176 C 63.600 87.603,63.420 88.064,63.200 88.200 C 62.980 88.336,62.800 88.887,62.800 89.424 C 62.800 89.961,62.620 90.400,62.400 90.400 C 62.180 90.400,62.000 90.760,62.000 91.200 C 62.000 91.640,61.820 92.000,61.600 92.000 C 61.380 92.000,61.200 92.414,61.200 92.920 C 61.200 93.426,61.036 94.011,60.835 94.220 C 60.287 94.791,58.400 100.672,58.400 101.808 C 58.400 102.354,58.220 102.800,58.000 102.800 C 57.780 102.800,57.600 103.340,57.600 104.000 C 57.600 104.660,57.420 105.200,57.200 105.200 C 56.980 105.200,56.800 105.920,56.800 106.800 C 56.800 107.680,56.620 108.400,56.400 108.400 C 56.180 108.400,56.000 108.839,56.000 109.376 C 56.000 109.913,55.820 110.464,55.600 110.600 C 55.380 110.736,55.200 111.546,55.200 112.400 C 55.200 113.254,55.020 114.064,54.800 114.200 C 54.580 114.336,54.400 115.157,54.400 116.024 C 54.400 116.891,54.220 117.600,54.000 117.600 C 53.780 117.600,53.600 118.500,53.600 119.600 C 53.600 120.700,53.420 121.600,53.200 121.600 C 52.978 121.600,52.800 122.667,52.800 124.000 C 52.800 125.333,52.622 126.400,52.400 126.400 C 52.169 126.400,52.000 127.659,52.000 129.376 C 52.000 131.013,51.820 132.464,51.600 132.600 C 51.346 132.757,51.200 137.737,51.200 146.224 C 51.200 154.875,51.341 159.600,51.600 159.600 C 51.822 159.600,52.000 160.667,52.000 162.000 C 52.000 163.333,52.178 164.400,52.400 164.400 C 52.620 164.400,52.800 165.300,52.800 166.400 C 52.800 167.500,52.980 168.400,53.200 168.400 C 53.420 168.400,53.600 169.221,53.600 170.224 C 53.600 171.337,53.756 171.951,54.000 171.800 C 54.244 171.649,54.400 172.263,54.400 173.376 C 54.400 174.379,54.580 175.200,54.800 175.200 C 55.020 175.200,55.200 175.740,55.200 176.400 C 55.200 177.060,55.380 177.600,55.600 177.600 C 55.820 177.600,56.000 178.129,56.000 178.776 C 56.000 179.423,56.180 180.064,56.400 180.200 C 56.620 180.336,56.800 181.067,56.800 181.824 C 56.800 182.581,56.980 183.200,57.200 183.200 C 57.420 183.200,57.600 183.740,57.600 184.400 C 57.600 185.060,57.760 185.600,57.955 185.600 C 58.150 185.600,58.430 186.406,58.578 187.391 C 58.725 188.376,59.016 189.286,59.223 189.414 C 59.430 189.542,59.600 190.087,59.600 190.624 C 59.600 191.161,59.780 191.600,60.000 191.600 C 60.220 191.600,60.400 192.039,60.400 192.576 C 60.400 193.113,60.580 193.664,60.800 193.800 C 61.020 193.936,61.200 194.397,61.200 194.824 C 61.200 195.251,61.380 195.600,61.600 195.600 C 61.820 195.600,62.000 196.039,62.000 196.576 C 62.000 197.113,62.180 197.664,62.400 197.800 C 62.620 197.936,62.800 198.397,62.800 198.824 C 62.800 199.251,62.980 199.600,63.200 199.600 C 63.420 199.600,63.600 200.039,63.600 200.576 C 63.600 201.113,63.780 201.664,64.000 201.800 C 64.220 201.936,64.400 202.397,64.400 202.824 C 64.400 203.251,64.580 203.600,64.800 203.600 C 65.020 203.600,65.200 203.960,65.200 204.400 C 65.200 204.840,65.380 205.200,65.600 205.200 C 65.820 205.200,66.000 205.560,66.000 206.000 C 66.000 206.440,66.180 206.800,66.400 206.800 C 66.620 206.800,66.800 207.250,66.800 207.800 C 66.800 208.350,66.980 208.800,67.200 208.800 C 67.420 208.800,67.600 209.160,67.600 209.600 C 67.600 210.040,67.780 210.400,68.000 210.400 C 68.220 210.400,68.400 210.760,68.400 211.200 C 68.400 211.640,68.580 212.000,68.800 212.000 C 69.020 212.000,69.200 212.360,69.200 212.800 C 69.200 213.240,69.380 213.600,69.600 213.600 C 69.820 213.600,70.000 213.960,70.000 214.400 C 70.000 214.840,70.180 215.200,70.400 215.200 C 70.620 215.200,70.800 215.560,70.800 216.000 C 70.800 216.440,70.980 216.800,71.200 216.800 C 71.420 216.800,71.600 217.160,71.600 217.600 C 71.600 218.040,71.780 218.400,72.000 218.400 C 72.220 218.400,72.400 218.760,72.400 219.200 C 72.400 219.640,72.580 220.000,72.800 220.000 C 73.020 220.000,73.200 220.244,73.200 220.543 C 73.200 220.842,73.830 222.295,74.600 223.772 C 75.370 225.249,76.000 226.715,76.000 227.029 C 76.000 227.343,76.180 227.600,76.400 227.600 C 76.620 227.600,76.800 227.960,76.800 228.400 C 76.800 228.840,76.980 229.200,77.200 229.200 C 77.420 229.200,77.600 229.560,77.600 230.000 C 77.600 230.440,77.780 230.800,78.000 230.800 C 78.220 230.800,78.400 231.160,78.400 231.600 C 78.400 232.040,78.535 232.403,78.700 232.406 C 78.865 232.410,79.440 233.310,79.979 234.406 C 80.517 235.503,81.102 236.400,81.279 236.400 C 81.455 236.400,81.600 236.760,81.600 237.200 C 81.600 237.640,81.746 238.000,81.925 238.000 C 82.104 238.000,82.498 238.630,82.800 239.400 C 83.102 240.170,83.496 240.800,83.675 240.800 C 83.854 240.800,84.000 241.036,84.000 241.325 C 84.000 241.613,84.360 242.236,84.800 242.708 C 85.240 243.180,85.600 243.844,85.600 244.183 C 85.600 244.522,85.780 244.800,86.000 244.800 C 86.220 244.800,86.400 245.160,86.400 245.600 C 86.400 246.040,86.580 246.400,86.800 246.400 C 87.020 246.400,87.200 246.636,87.200 246.925 C 87.200 247.213,87.560 247.836,88.000 248.308 C 88.440 248.780,88.800 249.444,88.800 249.783 C 88.800 250.122,88.980 250.400,89.200 250.400 C 89.420 250.400,89.600 250.720,89.600 251.112 C 89.600 251.503,89.960 252.083,90.400 252.400 C 90.840 252.717,91.200 253.282,91.200 253.655 C 91.200 254.028,91.335 254.393,91.500 254.467 C 91.665 254.540,92.158 255.320,92.594 256.200 C 93.031 257.080,93.661 258.070,93.994 258.400 C 94.328 258.730,94.659 259.270,94.730 259.600 C 94.802 259.930,95.027 260.260,95.230 260.333 C 95.434 260.407,95.600 260.729,95.600 261.050 C 95.600 261.371,95.960 262.020,96.400 262.492 C 96.840 262.964,97.200 263.587,97.200 263.875 C 97.200 264.164,97.380 264.400,97.600 264.400 C 97.820 264.400,98.000 264.720,98.000 265.112 C 98.000 265.503,98.360 266.083,98.800 266.400 C 99.240 266.717,99.600 267.257,99.600 267.600 C 99.600 267.943,99.960 268.483,100.400 268.800 C 100.840 269.117,101.200 269.697,101.200 270.088 C 101.200 270.480,101.380 270.800,101.600 270.800 C 101.820 270.800,102.000 271.070,102.000 271.400 C 102.000 271.730,102.180 272.000,102.400 272.000 C 102.620 272.000,102.800 272.270,102.800 272.600 C 102.800 272.930,102.980 273.200,103.200 273.200 C 103.420 273.200,103.600 273.430,103.600 273.712 C 103.600 273.993,103.960 274.483,104.400 274.800 C 104.840 275.117,105.200 275.657,105.200 276.000 C 105.200 276.343,105.560 276.883,106.000 277.200 C 106.440 277.517,106.800 278.057,106.800 278.400 C 106.800 278.743,107.160 279.283,107.600 279.600 C 108.040 279.917,108.400 280.484,108.400 280.860 C 108.400 281.235,108.625 281.781,108.900 282.071 C 109.175 282.362,109.655 283.095,109.968 283.700 C 110.280 284.305,110.685 284.800,110.868 284.800 C 111.050 284.800,111.200 285.036,111.200 285.325 C 111.200 285.613,111.515 286.198,111.900 286.625 C 112.285 287.051,112.855 287.895,113.168 288.500 C 113.480 289.105,113.885 289.600,114.068 289.600 C 114.250 289.600,114.400 289.830,114.400 290.112 C 114.400 290.393,114.760 290.883,115.200 291.200 C 115.640 291.517,116.000 292.057,116.000 292.400 C 116.000 292.743,116.360 293.283,116.800 293.600 C 117.240 293.917,117.600 294.457,117.600 294.800 C 117.600 295.143,117.960 295.683,118.400 296.000 C 118.840 296.317,119.200 296.857,119.200 297.200 C 119.200 297.543,119.560 298.083,120.000 298.400 C 120.440 298.717,120.800 299.207,120.800 299.488 C 120.800 299.770,120.980 300.000,121.200 300.000 C 121.420 300.000,121.600 300.230,121.600 300.512 C 121.600 300.793,121.960 301.283,122.400 301.600 C 122.840 301.917,123.200 302.457,123.200 302.800 C 123.200 303.143,123.560 303.683,124.000 304.000 C 124.440 304.317,124.800 304.721,124.800 304.897 C 124.800 305.373,126.882 308.502,127.694 309.247 C 128.082 309.603,128.400 310.053,128.401 310.247 C 128.401 310.441,128.941 311.230,129.600 312.000 C 130.259 312.770,130.799 313.585,130.799 313.812 C 130.800 314.038,131.160 314.483,131.600 314.800 C 132.040 315.117,132.400 315.580,132.400 315.829 C 132.400 316.078,132.940 316.846,133.600 317.537 C 134.260 318.228,134.800 318.976,134.800 319.200 C 134.800 319.424,135.340 320.172,136.000 320.863 C 136.660 321.554,137.200 322.322,137.200 322.571 C 137.200 322.820,137.560 323.283,138.000 323.600 C 138.440 323.917,138.800 324.335,138.800 324.528 C 138.800 324.721,139.340 325.383,140.000 326.000 C 140.660 326.617,141.200 327.326,141.200 327.577 C 141.200 327.828,141.383 328.251,141.607 328.517 C 143.153 330.349,143.600 330.961,143.600 331.243 C 143.600 331.419,144.050 332.014,144.600 332.564 C 145.150 333.114,145.600 333.725,145.600 333.922 C 145.600 334.120,146.140 334.846,146.800 335.537 C 147.460 336.228,148.000 336.974,148.000 337.196 C 148.000 337.418,148.180 337.600,148.400 337.600 C 148.620 337.600,148.800 337.830,148.800 338.112 C 148.800 338.393,149.160 338.883,149.600 339.200 C 150.040 339.517,150.400 339.935,150.400 340.128 C 150.400 340.321,150.940 340.983,151.600 341.600 C 152.260 342.217,152.800 342.933,152.800 343.192 C 152.800 343.451,153.520 344.354,154.400 345.200 C 155.280 346.046,156.000 346.949,156.000 347.208 C 156.000 347.467,156.495 348.156,157.100 348.740 C 157.705 349.323,158.442 350.271,158.738 350.846 C 159.035 351.421,159.682 352.328,160.177 352.862 C 160.673 353.396,161.150 354.023,161.239 354.256 C 161.458 354.830,163.907 357.810,165.500 359.442 C 166.215 360.174,166.800 360.973,166.800 361.218 C 166.800 361.463,167.520 362.354,168.400 363.200 C 169.280 364.046,170.000 364.946,170.000 365.200 C 170.000 365.454,170.720 366.354,171.600 367.200 C 172.480 368.046,173.200 368.955,173.200 369.222 C 173.200 369.488,173.524 369.997,173.921 370.353 C 174.317 370.709,175.172 371.718,175.821 372.594 C 176.469 373.471,177.585 374.782,178.300 375.508 C 179.015 376.233,179.600 376.996,179.600 377.203 C 179.600 377.410,180.410 378.389,181.400 379.379 C 182.390 380.369,183.200 381.342,183.200 381.541 C 183.200 381.741,183.876 382.600,184.702 383.452 C 185.528 384.303,186.650 385.630,187.195 386.400 C 187.741 387.170,188.730 388.351,189.393 389.025 C 190.057 389.699,190.960 390.758,191.400 391.378 C 191.840 391.999,192.743 393.067,193.407 393.753 C 194.070 394.439,195.053 395.630,195.591 396.400 C 198.383 400.397,200.185 400.912,202.752 398.446 C 203.641 397.592,204.421 396.658,204.485 396.371 C 204.548 396.084,205.320 395.098,206.200 394.179 C 207.080 393.261,208.160 392.001,208.600 391.378 C 209.040 390.756,210.165 389.476,211.100 388.534 C 212.035 387.592,212.800 386.655,212.800 386.451 C 212.800 386.248,213.700 385.162,214.800 384.039 C 215.900 382.915,216.800 381.803,216.800 381.567 C 216.800 381.330,217.513 380.452,218.385 379.615 C 219.256 378.777,220.021 377.851,220.085 377.555 C 220.148 377.260,220.830 376.384,221.600 375.609 C 222.370 374.834,223.531 373.480,224.179 372.600 C 224.828 371.720,225.683 370.709,226.079 370.353 C 226.476 369.997,226.800 369.488,226.800 369.222 C 226.800 368.955,227.520 368.046,228.400 367.200 C 229.280 366.354,230.000 365.454,230.000 365.200 C 230.000 364.946,230.720 364.046,231.600 363.200 C 232.480 362.354,233.200 361.454,233.200 361.200 C 233.200 360.946,233.920 360.046,234.800 359.200 C 235.680 358.354,236.400 357.549,236.400 357.410 C 236.400 357.270,236.939 356.581,237.598 355.878 C 238.257 355.175,238.797 354.466,238.798 354.303 C 238.800 354.027,239.937 352.581,241.100 351.375 C 241.375 351.090,241.600 350.647,241.600 350.389 C 241.600 350.132,242.140 349.417,242.800 348.800 C 243.460 348.183,244.000 347.503,244.000 347.288 C 244.000 347.073,244.720 346.155,245.600 345.248 C 246.480 344.341,247.200 343.402,247.200 343.160 C 247.200 342.919,247.740 342.217,248.400 341.600 C 249.060 340.983,249.600 340.370,249.600 340.236 C 249.600 340.102,250.140 339.428,250.800 338.737 C 251.460 338.046,252.000 337.326,252.000 337.137 C 252.000 336.948,252.540 336.228,253.200 335.537 C 253.860 334.846,254.400 334.120,254.400 333.922 C 254.400 333.725,254.850 333.114,255.400 332.564 C 255.950 332.014,256.400 331.419,256.400 331.243 C 256.400 330.961,256.847 330.349,258.393 328.517 C 258.617 328.251,258.800 327.828,258.800 327.577 C 258.800 327.326,259.340 326.617,260.000 326.000 C 260.660 325.383,261.200 324.721,261.200 324.528 C 261.200 324.335,261.560 323.917,262.000 323.600 C 262.440 323.283,262.800 322.693,262.800 322.288 C 262.800 321.884,262.980 321.664,263.200 321.800 C 263.420 321.936,263.600 321.806,263.600 321.512 C 263.600 321.217,263.960 320.717,264.400 320.400 C 264.840 320.083,265.200 319.575,265.200 319.272 C 265.200 318.969,265.740 318.217,266.400 317.600 C 267.060 316.983,267.600 316.231,267.600 315.928 C 267.600 315.625,267.960 315.117,268.400 314.800 C 268.840 314.483,269.200 314.020,269.200 313.771 C 269.200 313.522,269.740 312.754,270.400 312.063 C 271.060 311.372,271.600 310.602,271.600 310.351 C 271.600 310.099,271.918 309.603,272.306 309.247 C 273.118 308.502,275.200 305.373,275.200 304.897 C 275.200 304.721,275.560 304.317,276.000 304.000 C 276.440 303.683,276.800 303.191,276.800 302.908 C 276.800 302.625,277.340 301.828,278.000 301.137 C 278.660 300.446,279.200 299.678,279.200 299.429 C 279.200 299.180,279.560 298.717,280.000 298.400 C 280.440 298.083,280.800 297.543,280.800 297.200 C 280.800 296.857,281.160 296.317,281.600 296.000 C 282.040 295.683,282.400 295.143,282.400 294.800 C 282.400 294.457,282.760 293.917,283.200 293.600 C 283.640 293.283,284.000 292.743,284.000 292.400 C 284.000 292.057,284.360 291.517,284.800 291.200 C 285.240 290.883,285.600 290.393,285.600 290.112 C 285.600 289.830,285.750 289.600,285.932 289.600 C 286.115 289.600,286.520 289.105,286.832 288.500 C 287.145 287.895,287.715 287.051,288.100 286.625 C 288.485 286.198,288.800 285.613,288.800 285.325 C 288.800 285.036,288.950 284.800,289.132 284.800 C 289.315 284.800,289.720 284.305,290.032 283.700 C 290.345 283.095,290.825 282.362,291.100 282.071 C 291.375 281.781,291.600 281.235,291.600 280.860 C 291.600 280.484,291.960 279.917,292.400 279.600 C 292.840 279.283,293.200 278.743,293.200 278.400 C 293.200 278.057,293.560 277.517,294.000 277.200 C 294.440 276.883,294.800 276.343,294.800 276.000 C 294.800 275.657,295.160 275.117,295.600 274.800 C 296.040 274.483,296.400 273.993,296.400 273.712 C 296.400 273.430,296.580 273.200,296.800 273.200 C 297.020 273.200,297.200 272.930,297.200 272.600 C 297.200 272.270,297.380 272.000,297.600 272.000 C 297.820 272.000,298.000 271.730,298.000 271.400 C 298.000 271.070,298.180 270.800,298.400 270.800 C 298.620 270.800,298.800 270.564,298.800 270.275 C 298.800 269.987,299.160 269.364,299.600 268.892 C 300.040 268.420,300.400 267.796,300.400 267.505 C 300.400 267.214,300.760 266.717,301.200 266.400 C 301.640 266.083,302.000 265.503,302.000 265.112 C 302.000 264.720,302.180 264.400,302.400 264.400 C 302.620 264.400,302.800 264.164,302.800 263.875 C 302.800 263.587,303.160 262.964,303.600 262.492 C 304.040 262.020,304.400 261.356,304.400 261.017 C 304.400 260.678,304.558 260.400,304.751 260.400 C 304.945 260.400,305.327 259.860,305.600 259.200 C 305.873 258.540,306.215 258.000,306.359 258.000 C 306.503 258.000,306.976 257.192,307.410 256.204 C 307.845 255.216,308.335 254.406,308.500 254.404 C 308.665 254.402,308.800 254.080,308.800 253.688 C 308.800 253.297,309.160 252.717,309.600 252.400 C 310.040 252.083,310.400 251.503,310.400 251.112 C 310.400 250.720,310.580 250.400,310.800 250.400 C 311.020 250.400,311.200 250.122,311.200 249.783 C 311.200 249.444,311.560 248.780,312.000 248.308 C 312.440 247.836,312.800 247.213,312.800 246.925 C 312.800 246.636,312.980 246.400,313.200 246.400 C 313.420 246.400,313.600 246.040,313.600 245.600 C 313.600 245.160,313.780 244.800,314.000 244.800 C 314.220 244.800,314.400 244.480,314.400 244.088 C 314.400 243.697,314.760 243.117,315.200 242.800 C 315.640 242.483,316.000 241.903,316.000 241.512 C 316.000 241.120,316.146 240.800,316.325 240.800 C 316.504 240.800,316.898 240.170,317.200 239.400 C 317.502 238.630,317.896 238.000,318.075 238.000 C 318.254 238.000,318.400 237.640,318.400 237.200 C 318.400 236.760,318.552 236.400,318.737 236.400 C 318.923 236.400,319.508 235.545,320.037 234.500 C 320.567 233.455,321.135 232.540,321.300 232.467 C 321.465 232.393,321.600 231.988,321.600 231.567 C 321.600 231.145,321.780 230.800,322.000 230.800 C 322.220 230.800,322.400 230.440,322.400 230.000 C 322.400 229.560,322.580 229.200,322.800 229.200 C 323.020 229.200,323.200 228.840,323.200 228.400 C 323.200 227.960,323.380 227.600,323.600 227.600 C 323.820 227.600,324.000 227.390,324.000 227.134 C 324.000 226.388,325.323 223.600,325.677 223.600 C 325.855 223.600,326.000 223.240,326.000 222.800 C 326.000 222.360,326.180 222.000,326.400 222.000 C 326.620 222.000,326.800 221.651,326.800 221.224 C 326.800 220.797,326.980 220.336,327.200 220.200 C 327.420 220.064,327.600 219.603,327.600 219.176 C 327.600 218.749,327.780 218.400,328.000 218.400 C 328.220 218.400,328.400 218.040,328.400 217.600 C 328.400 217.160,328.580 216.800,328.800 216.800 C 329.020 216.800,329.200 216.440,329.200 216.000 C 329.200 215.560,329.380 215.200,329.600 215.200 C 329.820 215.200,330.000 214.840,330.000 214.400 C 330.000 213.960,330.180 213.600,330.400 213.600 C 330.620 213.600,330.800 213.240,330.800 212.800 C 330.800 212.360,330.980 212.000,331.200 212.000 C 331.420 212.000,331.600 211.640,331.600 211.200 C 331.600 210.760,331.780 210.400,332.000 210.400 C 332.220 210.400,332.400 210.040,332.400 209.600 C 332.400 209.160,332.580 208.800,332.800 208.800 C 333.020 208.800,333.200 208.451,333.200 208.024 C 333.200 207.597,333.380 207.136,333.600 207.000 C 333.820 206.864,334.000 206.403,334.000 205.976 C 334.000 205.549,334.180 205.200,334.400 205.200 C 334.620 205.200,334.800 204.840,334.800 204.400 C 334.800 203.960,334.980 203.600,335.200 203.600 C 335.420 203.600,335.600 203.251,335.600 202.824 C 335.600 202.397,335.780 201.936,336.000 201.800 C 336.220 201.664,336.400 201.113,336.400 200.576 C 336.400 200.039,336.580 199.600,336.800 199.600 C 337.020 199.600,337.200 199.251,337.200 198.824 C 337.200 198.397,337.380 197.936,337.600 197.800 C 337.820 197.664,338.000 197.113,338.000 196.576 C 338.000 196.039,338.180 195.600,338.400 195.600 C 338.620 195.600,338.800 195.251,338.800 194.824 C 338.800 194.397,338.980 193.936,339.200 193.800 C 339.420 193.664,339.600 193.113,339.600 192.576 C 339.600 192.039,339.780 191.600,340.000 191.600 C 340.220 191.600,340.400 191.161,340.400 190.624 C 340.400 190.087,340.570 189.542,340.777 189.414 C 340.984 189.286,341.275 188.376,341.422 187.391 C 341.570 186.406,341.850 185.600,342.045 185.600 C 342.240 185.600,342.400 185.060,342.400 184.400 C 342.400 183.740,342.580 183.200,342.800 183.200 C 343.020 183.200,343.200 182.581,343.200 181.824 C 343.200 181.067,343.380 180.336,343.600 180.200 C 343.820 180.064,344.000 179.423,344.000 178.776 C 344.000 178.129,344.180 177.600,344.400 177.600 C 344.620 177.600,344.800 177.071,344.800 176.424 C 344.800 175.777,344.980 175.136,345.200 175.000 C 345.420 174.864,345.600 174.033,345.600 173.153 C 345.600 172.188,345.759 171.651,346.000 171.800 C 346.244 171.951,346.400 171.337,346.400 170.224 C 346.400 169.221,346.580 168.400,346.800 168.400 C 347.020 168.400,347.200 167.500,347.200 166.400 C 347.200 165.300,347.380 164.400,347.600 164.400 C 347.822 164.400,348.000 163.333,348.000 162.000 C 348.000 160.667,348.178 159.600,348.400 159.600 C 349.035 159.600,348.937 133.908,348.300 133.221 C 347.894 132.784,347.912 132.742,348.400 133.000 C 348.888 133.258,348.906 133.216,348.500 132.779 C 348.203 132.458,348.000 131.147,348.000 129.544 C 348.000 128.061,347.820 126.736,347.600 126.600 C 347.380 126.464,347.200 125.283,347.200 123.976 C 347.200 122.659,347.022 121.600,346.800 121.600 C 346.580 121.600,346.400 120.700,346.400 119.600 C 346.400 118.500,346.220 117.600,346.000 117.600 C 345.780 117.600,345.600 116.891,345.600 116.024 C 345.600 115.157,345.420 114.336,345.200 114.200 C 344.980 114.064,344.800 113.243,344.800 112.376 C 344.800 111.509,344.620 110.800,344.400 110.800 C 344.180 110.800,344.000 110.260,344.000 109.600 C 344.000 108.940,343.820 108.400,343.600 108.400 C 343.380 108.400,343.200 107.680,343.200 106.800 C 343.200 105.920,343.020 105.200,342.800 105.200 C 342.580 105.200,342.400 104.660,342.400 104.000 C 342.400 103.340,342.220 102.800,342.000 102.800 C 341.780 102.800,341.600 102.354,341.600 101.808 C 341.600 100.672,339.713 94.791,339.165 94.220 C 338.964 94.011,338.800 93.426,338.800 92.920 C 338.800 92.414,338.620 92.000,338.400 92.000 C 338.180 92.000,338.000 91.728,338.000 91.395 C 338.000 90.807,337.833 90.382,336.862 88.505 C 336.608 88.013,336.400 87.338,336.400 87.005 C 336.400 86.672,336.220 86.400,336.000 86.400 C 335.780 86.400,335.600 86.040,335.600 85.600 C 335.600 85.160,335.420 84.800,335.200 84.800 C 334.980 84.800,334.800 84.440,334.800 84.000 C 334.800 83.560,334.620 83.200,334.400 83.200 C 334.180 83.200,334.000 82.840,334.000 82.400 C 334.000 81.960,333.820 81.600,333.600 81.600 C 333.380 81.600,333.200 81.240,333.200 80.800 C 333.200 80.360,333.020 80.000,332.800 80.000 C 332.580 80.000,332.400 79.640,332.400 79.200 C 332.400 78.760,332.220 78.400,332.000 78.400 C 331.780 78.400,331.600 78.040,331.600 77.600 C 331.600 77.160,331.420 76.800,331.200 76.800 C 330.980 76.800,330.800 76.612,330.800 76.383 C 330.800 76.154,330.440 75.580,330.000 75.108 C 329.560 74.636,329.200 74.013,329.200 73.725 C 329.200 73.436,329.020 73.200,328.800 73.200 C 328.580 73.200,328.400 72.840,328.400 72.400 C 328.400 71.960,328.220 71.600,328.000 71.600 C 327.780 71.600,327.600 71.280,327.600 70.888 C 327.600 70.497,327.240 69.917,326.800 69.600 C 326.360 69.283,326.000 68.703,326.000 68.312 C 326.000 67.920,325.847 67.600,325.661 67.600 C 325.474 67.600,324.997 66.880,324.600 66.000 C 324.203 65.120,323.726 64.400,323.539 64.400 C 323.353 64.400,323.200 64.164,323.200 63.875 C 323.200 63.587,322.885 62.996,322.500 62.562 C 321.196 61.091,319.200 58.448,319.200 58.192 C 319.200 58.052,318.480 57.246,317.600 56.400 C 316.720 55.554,316.000 54.657,316.000 54.405 C 316.000 54.154,315.100 53.071,314.000 52.000 C 312.900 50.929,312.000 49.851,312.000 49.606 C 312.000 49.034,299.351 36.400,298.779 36.400 C 298.542 36.400,297.471 35.500,296.400 34.400 C 295.329 33.300,294.295 32.400,294.104 32.400 C 293.913 32.400,293.108 31.815,292.315 31.100 C 290.034 29.043,289.464 28.603,286.548 26.647 C 285.036 25.633,283.583 24.623,283.317 24.402 C 283.051 24.181,282.596 24.000,282.305 24.000 C 282.014 24.000,281.517 23.640,281.200 23.200 C 280.883 22.760,280.343 22.400,280.000 22.400 C 279.657 22.400,279.117 22.040,278.800 21.600 C 278.483 21.160,277.903 20.800,277.512 20.800 C 277.120 20.800,276.800 20.620,276.800 20.400 C 276.800 20.180,276.522 20.000,276.183 20.000 C 275.844 20.000,275.180 19.640,274.708 19.200 C 274.236 18.760,273.344 18.176,272.725 17.903 C 272.106 17.629,271.600 17.269,271.600 17.102 C 271.600 16.936,271.240 16.800,270.800 16.800 C 270.360 16.800,270.000 16.620,270.000 16.400 C 270.000 16.180,269.640 16.000,269.200 16.000 C 268.760 16.000,268.400 15.820,268.400 15.600 C 268.400 15.380,268.040 15.200,267.600 15.200 C 267.160 15.200,266.800 15.020,266.800 14.800 C 266.800 14.580,266.440 14.400,266.000 14.400 C 265.560 14.400,265.200 14.220,265.200 14.000 C 265.200 13.780,264.840 13.600,264.400 13.600 C 263.960 13.600,263.600 13.420,263.600 13.200 C 263.600 12.980,263.240 12.800,262.800 12.800 C 262.360 12.800,262.000 12.620,262.000 12.400 C 262.000 12.180,261.651 12.000,261.224 12.000 C 260.797 12.000,260.336 11.820,260.200 11.600 C 260.064 11.380,259.513 11.200,258.976 11.200 C 258.439 11.200,258.000 11.049,258.000 10.864 C 258.000 10.679,257.235 10.280,256.300 9.977 C 255.365 9.674,254.150 9.196,253.600 8.915 C 253.050 8.635,252.105 8.404,251.500 8.402 C 250.895 8.401,250.400 8.220,250.400 8.000 C 250.400 7.780,249.860 7.600,249.200 7.600 C 248.540 7.600,248.000 7.420,248.000 7.200 C 248.000 6.980,247.460 6.800,246.800 6.800 C 246.140 6.800,245.600 6.620,245.600 6.400 C 245.600 6.180,245.060 6.000,244.400 6.000 C 243.740 6.000,243.200 5.820,243.200 5.600 C 243.200 5.380,242.570 5.200,241.800 5.200 C 241.030 5.200,240.400 5.020,240.400 4.800 C 240.400 4.580,239.871 4.400,239.224 4.400 C 238.577 4.400,237.936 4.220,237.800 4.000 C 237.664 3.780,236.854 3.600,236.000 3.600 C 235.146 3.600,234.336 3.420,234.200 3.200 C 234.064 2.980,233.243 2.800,232.376 2.800 C 231.509 2.800,230.800 2.620,230.800 2.400 C 230.800 2.180,229.900 2.000,228.800 2.000 C 227.700 2.000,226.800 1.820,226.800 1.600 C 226.800 1.378,225.744 1.200,224.433 1.200 C 222.917 1.200,222.008 1.023,221.903 0.708 C 221.741 0.222,188.625 -0.132,181.300 0.274 M209.776 76.031 C 217.196 77.350,216.404 77.181,220.800 78.385 C 221.790 78.656,222.913 79.040,223.295 79.239 C 223.677 79.438,224.341 79.600,224.771 79.600 C 225.201 79.600,225.664 79.780,225.800 80.000 C 225.936 80.220,226.309 80.400,226.629 80.400 C 228.168 80.400,241.965 87.727,243.200 89.200 C 243.310 89.331,244.030 89.877,244.800 90.412 C 248.733 93.147,256.792 101.201,259.596 105.200 C 260.136 105.970,260.898 106.949,261.289 107.375 C 261.680 107.802,262.000 108.372,262.000 108.642 C 262.000 108.912,262.138 109.193,262.306 109.267 C 263.282 109.691,268.556 119.971,269.847 123.966 C 270.173 124.975,270.596 126.160,270.787 126.600 C 270.977 127.040,271.250 127.850,271.394 128.400 C 271.537 128.950,271.835 130.030,272.057 130.800 C 272.570 132.582,273.085 135.056,273.679 138.600 C 274.311 142.367,274.287 157.785,273.643 161.600 C 273.364 163.250,273.042 165.276,272.926 166.103 C 272.810 166.929,272.555 167.705,272.358 167.826 C 272.161 167.948,272.000 168.429,272.000 168.895 C 272.000 169.708,271.453 171.704,270.765 173.400 C 270.586 173.840,270.173 175.025,269.847 176.034 C 268.556 180.029,263.282 190.309,262.306 190.733 C 262.138 190.807,262.000 191.088,262.000 191.358 C 262.000 191.628,261.680 192.198,261.289 192.625 C 260.898 193.051,260.136 194.030,259.596 194.800 C 256.812 198.770,248.704 206.873,244.800 209.588 C 244.030 210.123,243.310 210.669,243.200 210.800 C 241.894 212.357,230.420 218.422,226.171 219.801 C 225.087 220.153,223.840 220.596,223.400 220.787 C 222.960 220.977,222.150 221.250,221.600 221.394 C 221.050 221.537,219.970 221.835,219.200 222.057 C 213.761 223.623,208.937 224.149,200.000 224.149 C 192.407 224.149,188.164 223.829,184.800 223.002 C 180.093 221.845,177.485 221.142,176.600 220.793 C 176.160 220.619,174.270 219.889,172.400 219.172 C 167.254 217.199,159.683 213.237,159.267 212.300 C 159.193 212.135,158.969 212.000,158.769 212.000 C 156.343 212.000,138.000 193.657,138.000 191.231 C 138.000 191.031,137.858 190.807,137.685 190.733 C 137.080 190.477,133.742 184.455,132.039 180.545 C 131.094 178.375,130.158 176.287,129.960 175.905 C 129.762 175.523,129.600 174.936,129.600 174.600 C 129.600 174.264,129.442 173.677,129.249 173.295 C 128.668 172.145,127.448 167.617,126.852 164.400 C 125.646 157.892,125.532 156.282,125.732 148.600 C 125.960 139.833,126.446 135.979,128.003 130.600 C 128.257 129.720,128.562 128.503,128.679 127.895 C 128.796 127.287,129.051 126.692,129.246 126.571 C 129.441 126.451,129.600 125.924,129.600 125.400 C 129.600 124.876,129.780 124.336,130.000 124.200 C 130.220 124.064,130.400 123.685,130.400 123.357 C 130.400 121.971,136.767 109.670,137.694 109.267 C 137.862 109.193,138.000 108.969,138.000 108.769 C 138.000 106.343,156.343 88.000,158.769 88.000 C 158.969 88.000,159.193 87.865,159.267 87.700 C 159.636 86.869,167.127 82.858,171.400 81.204 C 172.720 80.693,173.971 80.123,174.180 79.938 C 174.389 79.752,174.886 79.600,175.285 79.600 C 175.684 79.600,176.323 79.438,176.705 79.239 C 177.345 78.906,178.031 78.708,182.300 77.617 C 183.884 77.212,186.486 76.677,189.800 76.074 C 192.670 75.552,206.909 75.521,209.776 76.031 " stroke="none" fill="#fc2c3c" fill-rule="evenodd"></path><path id="path2" d="M190.800 75.997 C 190.219 76.181,190.973 76.225,192.600 76.101 C 194.140 75.984,195.475 75.823,195.567 75.744 C 195.888 75.466,191.789 75.683,190.800 75.997 M204.433 75.744 C 204.525 75.823,205.860 75.984,207.400 76.101 C 209.027 76.225,209.781 76.181,209.200 75.997 C 208.211 75.683,204.112 75.466,204.433 75.744 M185.800 76.800 C 184.781 77.238,185.832 77.238,187.200 76.800 C 188.004 76.543,188.043 76.477,187.400 76.468 C 186.960 76.462,186.240 76.611,185.800 76.800 M212.800 76.800 C 214.168 77.238,215.219 77.238,214.200 76.800 C 213.760 76.611,213.040 76.462,212.600 76.468 C 211.957 76.477,211.996 76.543,212.800 76.800 M216.033 77.344 C 216.125 77.423,216.740 77.608,217.400 77.756 C 218.276 77.952,218.438 77.915,218.000 77.618 C 217.460 77.253,215.632 76.998,216.033 77.344 M164.822 84.207 C 163.404 84.972,162.054 85.794,161.822 86.035 C 161.371 86.503,166.740 83.704,167.380 83.137 C 168.057 82.537,167.450 82.791,164.822 84.207 M234.200 83.890 C 234.420 84.098,235.500 84.759,236.600 85.359 C 237.700 85.959,238.240 86.155,237.800 85.794 C 236.905 85.059,233.573 83.297,234.200 83.890 M238.833 86.523 C 241.022 88.144,243.198 89.530,243.193 89.299 C 243.185 88.981,239.397 86.400,238.938 86.400 C 238.789 86.400,238.742 86.456,238.833 86.523 M151.854 93.033 C 151.223 93.587,150.787 94.120,150.883 94.216 C 150.979 94.313,151.574 93.854,152.204 93.196 C 153.596 91.743,153.416 91.659,151.854 93.033 M252.783 97.800 C 258.167 103.502,258.463 103.789,256.502 101.400 C 255.599 100.300,253.458 98.050,251.744 96.400 C 249.217 93.967,249.413 94.231,252.783 97.800 M146.979 97.700 C 144.106 100.661,140.625 104.582,142.630 102.600 C 144.948 100.309,150.520 94.400,150.364 94.400 C 150.264 94.400,148.741 95.885,146.979 97.700 M261.081 107.761 C 261.477 108.289,261.857 108.667,261.928 108.600 C 262.138 108.399,261.034 106.800,260.685 106.800 C 260.508 106.800,260.686 107.232,261.081 107.761 M135.505 112.500 C 134.644 113.822,133.446 116.265,133.888 115.800 C 134.411 115.250,136.474 111.600,136.263 111.600 C 136.169 111.600,135.828 112.005,135.505 112.500 M264.641 113.400 C 265.241 114.500,265.902 115.580,266.110 115.800 C 266.703 116.427,264.941 113.095,264.206 112.200 C 263.845 111.760,264.041 112.300,264.641 113.400 M127.473 132.153 C 127.323 132.545,127.211 133.166,127.225 133.533 C 127.242 133.975,127.381 133.874,127.637 133.234 C 127.849 132.703,127.961 132.082,127.885 131.854 C 127.809 131.627,127.624 131.761,127.473 132.153 M272.034 132.000 C 272.046 132.330,272.211 132.960,272.400 133.400 L 272.744 134.200 272.766 133.400 C 272.778 132.960,272.613 132.330,272.400 132.000 C 272.055 131.467,272.015 131.467,272.034 132.000 M126.649 135.815 C 126.512 136.173,126.416 136.856,126.436 137.333 C 126.462 137.947,126.585 137.808,126.859 136.856 C 127.257 135.472,127.094 134.658,126.649 135.815 M273.062 136.600 C 273.196 137.480,273.372 138.275,273.453 138.367 C 273.756 138.710,273.529 136.568,273.181 135.800 C 272.929 135.242,272.893 135.485,273.062 136.600 M125.853 141.236 C 125.714 141.931,125.624 143.243,125.653 144.150 C 125.691 145.369,125.790 145.070,126.028 143.009 C 126.370 140.058,126.277 139.116,125.853 141.236 M273.882 142.800 C 274.008 144.230,274.177 145.475,274.256 145.567 C 274.561 145.920,274.326 141.758,273.998 141.000 C 273.784 140.505,273.740 141.190,273.882 142.800 M125.640 156.233 C 125.662 157.315,125.822 158.650,125.997 159.200 C 126.181 159.781,126.225 159.027,126.101 157.400 C 125.851 154.104,125.583 153.427,125.640 156.233 M274.072 155.650 C 274.032 156.447,273.905 157.708,273.789 158.450 C 273.597 159.685,273.615 159.716,274.008 158.815 C 274.244 158.274,274.371 157.014,274.291 156.015 C 274.162 154.418,274.136 154.375,274.072 155.650 M273.249 162.200 C 273.216 162.640,273.096 163.450,272.983 164.000 L 272.777 165.000 273.206 164.019 C 273.442 163.479,273.561 162.669,273.472 162.219 C 273.313 161.421,273.307 161.421,273.249 162.200 M126.468 162.600 C 126.462 163.040,126.611 163.760,126.800 164.200 C 127.238 165.219,127.238 164.168,126.800 162.800 C 126.543 161.996,126.477 161.957,126.468 162.600 M127.234 166.600 C 127.222 167.040,127.387 167.670,127.600 168.000 C 128.114 168.795,128.114 167.796,127.600 166.600 L 127.256 165.800 127.234 166.600 M272.446 166.267 C 272.421 166.524,272.284 167.064,272.141 167.467 C 271.940 168.036,271.994 168.097,272.379 167.742 C 272.652 167.491,272.789 166.951,272.684 166.542 C 272.579 166.134,272.472 166.010,272.446 166.267 M265.750 184.500 C 265.165 185.655,264.423 187.050,264.101 187.600 C 263.539 188.559,263.543 188.568,264.190 187.800 C 264.970 186.875,267.309 182.400,267.012 182.400 C 266.903 182.400,266.335 183.345,265.750 184.500 M134.325 185.400 C 134.772 186.280,135.433 187.360,135.794 187.800 C 136.155 188.240,135.959 187.700,135.359 186.600 C 134.016 184.138,133.207 183.199,134.325 185.400 M261.081 192.239 C 260.686 192.768,260.508 193.200,260.685 193.200 C 261.034 193.200,262.138 191.601,261.928 191.400 C 261.857 191.333,261.477 191.711,261.081 192.239 M143.499 198.600 C 144.401 199.700,146.364 201.770,147.862 203.200 C 150.085 205.323,149.929 205.103,147.012 202.000 C 142.069 196.742,141.618 196.306,143.499 198.600 M256.801 197.798 C 256.286 198.348,255.939 198.864,256.032 198.946 C 256.124 199.028,256.619 198.578,257.130 197.947 C 258.276 196.535,258.074 196.444,256.801 197.798 M251.991 203.100 L 248.600 206.600 252.100 203.209 C 254.025 201.344,255.600 199.769,255.600 199.709 C 255.600 199.418,255.141 199.849,251.991 203.100 M150.822 205.900 C 150.834 206.065,151.419 206.638,152.122 207.174 L 153.400 208.149 152.225 206.874 C 151.003 205.549,150.785 205.397,150.822 205.900 M240.832 212.063 C 238.228 213.908,238.470 214.131,241.128 212.335 C 243.431 210.779,243.369 210.830,243.167 210.663 C 243.075 210.588,242.024 211.218,240.832 212.063 M162.200 214.222 C 163.114 214.956,168.010 217.484,167.400 216.906 C 167.180 216.697,165.740 215.863,164.200 215.053 C 162.660 214.242,161.760 213.868,162.200 214.222 M236.296 214.758 C 233.860 216.187,233.319 216.744,235.400 215.680 C 236.945 214.891,238.810 213.618,238.400 213.633 C 238.290 213.637,237.343 214.143,236.296 214.758 M216.800 222.400 C 215.976 222.664,215.941 222.726,216.600 222.754 C 217.040 222.773,217.670 222.613,218.000 222.400 C 218.701 221.947,218.214 221.947,216.800 222.400 M185.800 223.181 C 186.568 223.529,188.710 223.756,188.367 223.453 C 188.275 223.372,187.480 223.196,186.600 223.062 C 185.485 222.893,185.242 222.929,185.800 223.181 M212.600 223.200 C 211.511 223.477,211.493 223.507,212.400 223.525 C 212.950 223.535,213.760 223.389,214.200 223.200 C 215.186 222.776,214.266 222.776,212.600 223.200 M191.000 223.998 C 191.758 224.326,195.920 224.561,195.567 224.256 C 195.475 224.177,194.230 224.008,192.800 223.882 C 191.190 223.740,190.505 223.784,191.000 223.998 M206.200 224.000 L 204.200 224.274 206.200 224.309 C 207.300 224.328,208.560 224.189,209.000 224.000 L 209.800 223.656 209.000 223.691 C 208.560 223.710,207.300 223.849,206.200 224.000 " stroke="none" fill="#fc7c84" fill-rule="evenodd"></path><path id="path3" d="M196.505 75.887 C 197.114 75.979,198.014 75.977,198.505 75.882 C 198.997 75.787,198.500 75.711,197.400 75.714 C 196.300 75.717,195.897 75.795,196.505 75.887 M201.705 75.887 C 202.314 75.979,203.214 75.977,203.705 75.882 C 204.197 75.787,203.700 75.711,202.600 75.714 C 201.500 75.717,201.097 75.795,201.705 75.887 M125.714 147.400 C 125.717 148.500,125.795 148.903,125.887 148.295 C 125.979 147.686,125.977 146.786,125.882 146.295 C 125.787 145.803,125.711 146.300,125.714 147.400 M274.114 147.400 C 274.117 148.500,274.195 148.903,274.287 148.295 C 274.379 147.686,274.377 146.786,274.282 146.295 C 274.187 145.803,274.111 146.300,274.114 147.400 M125.714 152.600 C 125.717 153.700,125.795 154.103,125.887 153.495 C 125.979 152.886,125.977 151.986,125.882 151.495 C 125.787 151.003,125.711 151.500,125.714 152.600 M274.114 152.600 C 274.117 153.700,274.195 154.103,274.287 153.495 C 274.379 152.886,274.377 151.986,274.282 151.495 C 274.187 151.003,274.111 151.500,274.114 152.600 M196.505 224.287 C 197.114 224.379,198.014 224.377,198.505 224.282 C 198.997 224.187,198.500 224.111,197.400 224.114 C 196.300 224.117,195.897 224.195,196.505 224.287 M201.705 224.287 C 202.314 224.379,203.214 224.377,203.705 224.282 C 204.197 224.187,203.700 224.111,202.600 224.114 C 201.500 224.117,201.097 224.195,201.705 224.287 " stroke="none" fill="#fc949c" fill-rule="evenodd"></path><path id="path4" d="M192.900 76.276 C 193.285 76.376,193.915 76.376,194.300 76.276 C 194.685 76.175,194.370 76.093,193.600 76.093 C 192.830 76.093,192.515 76.175,192.900 76.276 M205.700 76.276 C 206.085 76.376,206.715 76.376,207.100 76.276 C 207.485 76.175,207.170 76.093,206.400 76.093 C 205.630 76.093,205.315 76.175,205.700 76.276 M189.500 76.682 C 189.995 76.778,190.805 76.778,191.300 76.682 C 191.795 76.587,191.390 76.509,190.400 76.509 C 189.410 76.509,189.005 76.587,189.500 76.682 M208.700 76.682 C 209.195 76.778,210.005 76.778,210.500 76.682 C 210.995 76.587,210.590 76.509,209.600 76.509 C 208.610 76.509,208.205 76.587,208.700 76.682 M177.600 79.218 C 177.162 79.515,177.324 79.552,178.200 79.356 C 179.671 79.027,179.990 78.798,178.967 78.806 C 178.545 78.809,177.930 78.995,177.600 79.218 M220.433 78.944 C 220.525 79.023,221.140 79.208,221.800 79.356 C 222.676 79.552,222.838 79.515,222.400 79.218 C 221.860 78.853,220.032 78.598,220.433 78.944 M238.800 86.921 C 238.800 87.012,239.835 87.751,241.100 88.563 C 242.365 89.375,242.908 89.621,242.306 89.110 C 241.118 88.100,238.800 86.653,238.800 86.921 M158.293 88.614 C 157.472 89.172,156.800 89.715,156.800 89.820 C 156.800 89.925,157.520 89.535,158.400 88.953 C 159.797 88.028,160.270 87.600,159.893 87.600 C 159.834 87.600,159.114 88.056,158.293 88.614 M151.775 93.700 L 150.600 95.000 151.900 93.825 C 153.112 92.730,153.384 92.400,153.075 92.400 C 153.006 92.400,152.421 92.985,151.775 93.700 M247.800 93.452 C 250.995 96.619,255.146 100.315,253.200 98.260 C 251.990 96.982,250.100 95.199,249.000 94.298 C 247.900 93.397,247.360 93.016,247.800 93.452 M147.389 97.700 L 144.600 100.600 147.500 97.811 C 150.194 95.220,150.583 94.800,150.289 94.800 C 150.228 94.800,148.923 96.105,147.389 97.700 M143.375 102.100 L 142.200 103.400 143.500 102.225 C 144.712 101.130,144.984 100.800,144.675 100.800 C 144.606 100.800,144.021 101.385,143.375 102.100 M255.200 100.925 C 255.200 100.994,255.785 101.579,256.500 102.225 L 257.800 103.400 256.625 102.100 C 255.530 100.888,255.200 100.616,255.200 100.925 M261.437 108.900 C 262.249 110.165,262.988 111.200,263.079 111.200 C 263.347 111.200,261.900 108.882,260.890 107.694 C 260.379 107.092,260.625 107.635,261.437 108.900 M129.049 127.815 C 128.912 128.173,128.815 128.766,128.834 129.133 C 128.853 129.500,129.027 129.269,129.221 128.620 C 129.598 127.358,129.465 126.733,129.049 127.815 M127.850 132.450 C 127.517 134.117,127.840 134.440,128.200 132.800 C 128.352 132.109,128.393 131.459,128.291 131.358 C 128.189 131.256,127.991 131.747,127.850 132.450 M271.668 131.800 C 271.662 132.240,271.811 132.960,272.000 133.400 C 272.438 134.419,272.438 133.368,272.000 132.000 C 271.743 131.196,271.677 131.157,271.668 131.800 M126.509 140.400 C 126.509 141.390,126.587 141.795,126.682 141.300 C 126.778 140.805,126.778 139.995,126.682 139.500 C 126.587 139.005,126.509 139.410,126.509 140.400 M273.309 140.400 C 273.309 141.390,273.387 141.795,273.482 141.300 C 273.578 140.805,273.578 139.995,273.482 139.500 C 273.387 139.005,273.309 139.410,273.309 140.400 M126.093 143.600 C 126.093 144.370,126.175 144.685,126.276 144.300 C 126.376 143.915,126.376 143.285,126.276 142.900 C 126.175 142.515,126.093 142.830,126.093 143.600 M273.693 143.600 C 273.693 144.370,273.775 144.685,273.876 144.300 C 273.976 143.915,273.976 143.285,273.876 142.900 C 273.775 142.515,273.693 142.830,273.693 143.600 M126.093 156.400 C 126.093 157.170,126.175 157.485,126.276 157.100 C 126.376 156.715,126.376 156.085,126.276 155.700 C 126.175 155.315,126.093 155.630,126.093 156.400 M273.693 156.400 C 273.693 157.170,273.775 157.485,273.876 157.100 C 273.976 156.715,273.976 156.085,273.876 155.700 C 273.775 155.315,273.693 155.630,273.693 156.400 M126.509 159.600 C 126.509 160.590,126.587 160.995,126.682 160.500 C 126.778 160.005,126.778 159.195,126.682 158.700 C 126.587 158.205,126.509 158.610,126.509 159.600 M273.309 159.600 C 273.309 160.590,273.387 160.995,273.482 160.500 C 273.578 160.005,273.578 159.195,273.482 158.700 C 273.387 158.205,273.309 158.610,273.309 159.600 M127.668 166.400 C 127.688 167.439,128.318 169.146,128.332 168.200 C 128.338 167.760,128.189 167.040,128.000 166.600 C 127.789 166.110,127.661 166.032,127.668 166.400 M260.985 191.700 C 260.368 192.635,260.120 193.189,260.432 192.931 C 261.033 192.434,262.564 190.000,262.276 190.000 C 262.183 190.000,261.602 190.765,260.985 191.700 M147.400 202.400 C 148.928 203.940,150.269 205.200,150.379 205.200 C 150.489 205.200,149.328 203.940,147.800 202.400 C 146.272 200.860,144.931 199.600,144.821 199.600 C 144.711 199.600,145.872 200.860,147.400 202.400 M252.189 202.500 L 249.400 205.400 252.300 202.611 C 253.895 201.077,255.200 199.772,255.200 199.711 C 255.200 199.417,254.780 199.806,252.189 202.500 M241.087 211.368 C 238.726 213.002,238.164 213.575,239.906 212.572 C 241.250 211.799,243.556 210.023,243.200 210.036 C 243.090 210.041,242.139 210.640,241.087 211.368 M189.500 223.482 C 189.995 223.578,190.805 223.578,191.300 223.482 C 191.795 223.387,191.390 223.309,190.400 223.309 C 189.410 223.309,189.005 223.387,189.500 223.482 M208.700 223.482 C 209.195 223.578,210.005 223.578,210.500 223.482 C 210.995 223.387,210.590 223.309,209.600 223.309 C 208.610 223.309,208.205 223.387,208.700 223.482 M192.900 223.876 C 193.285 223.976,193.915 223.976,194.300 223.876 C 194.685 223.775,194.370 223.693,193.600 223.693 C 192.830 223.693,192.515 223.775,192.900 223.876 M205.700 223.876 C 206.085 223.976,206.715 223.976,207.100 223.876 C 207.485 223.775,207.170 223.693,206.400 223.693 C 205.630 223.693,205.315 223.775,205.700 223.876 " stroke="none" fill="#fc9c9c" fill-rule="evenodd"></path></g></svg>