<svg id="svg" version="1.1" width="400" height="400" viewBox="0 0 400 400" xmlns="http://www.w3.org/2000/svg" xmlns:xlink="http://www.w3.org/1999/xlink"><g id="svgg"><path id="path0" d="M25.587 59.426 C 25.154 60.321,24.800 61.266,24.800 61.526 C 24.800 61.787,24.620 62.000,24.400 62.000 C 24.180 62.000,24.000 62.360,24.000 62.800 C 24.000 63.240,23.820 63.600,23.600 63.600 C 23.380 63.600,23.200 63.960,23.200 64.400 C 23.200 64.840,23.020 65.200,22.800 65.200 C 22.580 65.200,22.400 65.560,22.400 66.000 C 22.400 66.440,22.220 66.800,22.000 66.800 C 21.780 66.800,21.600 67.160,21.600 67.600 C 21.600 68.040,21.420 68.400,21.200 68.400 C 20.980 68.400,20.800 68.760,20.800 69.200 C 20.800 69.640,20.620 70.000,20.400 70.000 C 20.180 70.000,20.000 70.360,20.000 70.800 C 20.000 71.240,19.820 71.600,19.600 71.600 C 19.380 71.600,19.200 71.960,19.200 72.400 C 19.200 72.840,19.020 73.200,18.800 73.200 C 18.580 73.200,18.400 73.560,18.400 74.000 C 18.400 74.440,18.254 74.800,18.075 74.800 C 17.896 74.800,17.502 75.430,17.200 76.200 C 16.898 76.970,16.504 77.600,16.325 77.600 C 16.146 77.600,16.000 77.960,16.000 78.400 C 16.000 78.840,15.820 79.200,15.600 79.200 C 15.380 79.200,15.200 79.560,15.200 80.000 C 15.200 80.440,15.020 80.800,14.800 80.800 C 14.580 80.800,14.400 81.160,14.400 81.600 C 14.400 82.040,14.220 82.400,14.000 82.400 C 13.780 82.400,13.600 82.760,13.600 83.200 C 13.600 83.640,13.420 84.000,13.200 84.000 C 12.980 84.000,12.800 84.360,12.800 84.800 C 12.800 85.240,12.620 85.600,12.400 85.600 C 12.180 85.600,12.000 85.960,12.000 86.400 C 12.000 86.840,11.820 87.200,11.600 87.200 C 11.380 87.200,11.200 87.560,11.200 88.000 C 11.200 88.440,11.020 88.800,10.800 88.800 C 10.580 88.800,10.400 89.160,10.400 89.600 C 10.400 90.040,10.220 90.400,10.000 90.400 C 9.780 90.400,9.594 90.715,9.587 91.100 C 9.580 91.485,9.310 92.149,8.987 92.576 C 8.664 93.004,8.400 93.679,8.400 94.076 C 8.400 94.474,8.220 94.800,8.000 94.800 C 7.780 94.800,7.600 95.160,7.600 95.600 C 7.600 96.040,7.420 96.400,7.200 96.400 C 6.980 96.400,6.800 96.760,6.800 97.200 C 6.800 97.640,6.620 98.000,6.400 98.000 C 6.180 98.000,6.000 98.360,6.000 98.800 C 6.000 99.240,5.820 99.600,5.600 99.600 C 5.380 99.600,5.200 99.960,5.200 100.400 C 5.200 100.840,5.020 101.200,4.800 101.200 C 4.580 101.200,4.400 101.560,4.400 102.000 C 4.400 102.440,4.220 102.800,4.000 102.800 C 3.780 102.800,3.600 103.160,3.600 103.600 C 3.600 104.040,3.420 104.400,3.200 104.400 C 2.980 104.400,2.800 104.760,2.800 105.200 C 2.800 105.640,2.620 106.000,2.400 106.000 C 2.180 106.000,2.000 106.360,2.000 106.800 C 2.000 107.240,1.862 107.600,1.694 107.600 C -0.005 107.600,-0.953 141.609,0.700 143.260 C 0.975 143.535,1.200 144.354,1.200 145.080 C 1.200 145.806,1.380 146.400,1.600 146.400 C 1.820 146.400,2.000 146.760,2.000 147.200 C 2.000 147.640,2.180 148.000,2.400 148.000 C 2.620 148.000,2.800 148.360,2.800 148.800 C 2.800 149.240,2.980 149.600,3.200 149.600 C 3.420 149.600,3.600 149.825,3.601 150.100 C 3.601 150.375,4.141 151.230,4.800 152.000 C 5.459 152.770,5.999 153.541,5.999 153.713 C 6.000 154.152,8.293 156.387,10.200 157.808 C 11.079 158.463,12.148 159.315,12.575 159.700 C 13.002 160.085,13.587 160.400,13.875 160.400 C 14.164 160.400,14.400 160.580,14.400 160.800 C 14.400 161.020,14.760 161.200,15.200 161.200 C 15.640 161.200,16.000 161.380,16.000 161.600 C 16.000 161.820,16.349 162.000,16.776 162.000 C 17.203 162.000,17.664 162.180,17.800 162.400 C 17.936 162.620,18.667 162.800,19.424 162.800 C 20.181 162.800,20.800 162.980,20.800 163.200 C 20.800 163.420,21.520 163.600,22.400 163.600 C 23.280 163.600,24.000 163.780,24.000 164.000 C 24.000 164.541,28.129 164.511,28.674 163.966 C 28.912 163.728,30.253 163.444,31.654 163.335 C 33.054 163.226,34.650 162.992,35.200 162.815 C 35.750 162.638,37.010 162.254,38.000 161.963 C 45.849 159.650,52.932 152.387,55.909 143.600 C 56.912 140.637,56.927 140.419,57.054 125.955 C 57.179 111.725,57.246 110.573,58.029 109.105 C 58.233 108.723,58.400 108.136,58.400 107.800 C 58.400 107.464,58.580 106.832,58.800 106.395 C 59.020 105.958,59.380 105.242,59.600 104.805 C 59.820 104.368,60.000 103.684,60.000 103.285 C 60.000 102.886,60.149 102.389,60.330 102.180 C 60.512 101.971,60.905 100.990,61.202 100.000 C 61.500 99.010,61.854 98.020,61.989 97.800 C 62.123 97.580,62.464 96.680,62.745 95.800 C 63.027 94.920,63.593 93.300,64.003 92.200 C 64.414 91.100,65.402 88.310,66.200 86.000 C 68.142 80.376,69.188 77.543,69.632 76.705 C 69.834 76.323,70.000 75.736,70.000 75.400 C 70.000 75.064,70.180 74.432,70.400 73.995 C 70.620 73.558,70.980 72.842,71.200 72.405 C 71.420 71.968,71.600 71.336,71.600 71.000 C 71.600 70.664,71.780 70.032,72.000 69.595 C 72.220 69.158,72.580 68.442,72.800 68.005 C 73.020 67.568,73.200 66.936,73.200 66.600 C 73.200 66.264,73.380 65.632,73.600 65.195 C 73.820 64.758,74.180 64.042,74.400 63.605 C 74.620 63.168,74.800 62.536,74.800 62.200 C 74.800 61.864,74.980 61.232,75.200 60.795 C 75.420 60.358,75.792 59.622,76.028 59.161 C 76.646 57.949,78.195 58.027,51.263 57.909 L 26.374 57.800 25.587 59.426 M326.500 57.894 C 323.544 58.038,323.296 58.207,324.000 59.605 C 324.220 60.042,324.580 60.758,324.800 61.195 C 325.020 61.632,325.200 62.264,325.200 62.600 C 325.200 63.193,325.366 63.616,326.338 65.495 C 326.592 65.987,326.800 66.716,326.800 67.115 C 326.800 67.514,326.943 68.011,327.118 68.220 C 327.293 68.429,327.665 69.320,327.945 70.200 C 328.224 71.080,328.603 72.160,328.787 72.600 C 329.380 74.017,330.700 77.650,333.003 84.200 C 334.241 87.720,335.588 91.500,335.998 92.600 C 336.408 93.700,336.973 95.320,337.255 96.200 C 337.536 97.080,337.877 97.980,338.011 98.200 C 338.146 98.420,338.500 99.410,338.798 100.400 C 339.095 101.390,339.488 102.371,339.670 102.580 C 339.851 102.789,340.000 103.286,340.000 103.685 C 340.000 104.084,340.180 104.768,340.400 105.205 C 340.620 105.642,340.980 106.358,341.200 106.795 C 341.420 107.232,341.600 107.916,341.600 108.315 C 341.600 108.714,341.825 109.265,342.100 109.539 C 342.474 109.913,342.660 113.933,342.837 125.519 C 343.059 139.955,343.133 141.170,343.934 143.526 C 347.658 154.466,357.151 162.313,367.918 163.349 C 369.304 163.483,370.777 163.773,371.192 163.996 C 372.169 164.519,376.000 164.522,376.000 164.000 C 376.000 163.780,376.720 163.600,377.600 163.600 C 378.480 163.600,379.200 163.420,379.200 163.200 C 379.200 162.980,379.819 162.800,380.576 162.800 C 381.333 162.800,382.064 162.620,382.200 162.400 C 382.336 162.180,382.797 162.000,383.224 162.000 C 383.651 162.000,384.000 161.820,384.000 161.600 C 384.000 161.380,384.360 161.200,384.800 161.200 C 385.240 161.200,385.600 161.020,385.600 160.800 C 385.600 160.580,385.836 160.400,386.125 160.400 C 386.413 160.400,386.998 160.085,387.425 159.700 C 387.852 159.315,388.921 158.463,389.800 157.808 C 391.707 156.387,394.000 154.152,394.001 153.713 C 394.001 153.541,394.541 152.770,395.200 152.000 C 395.859 151.230,396.399 150.375,396.399 150.100 C 396.400 149.825,396.580 149.600,396.800 149.600 C 397.020 149.600,397.200 149.240,397.200 148.800 C 397.200 148.360,397.380 148.000,397.600 148.000 C 397.820 148.000,398.000 147.640,398.000 147.200 C 398.000 146.760,398.180 146.400,398.400 146.400 C 398.620 146.400,398.800 145.806,398.800 145.080 C 398.800 144.354,399.025 143.535,399.300 143.260 C 400.953 141.609,400.005 107.600,398.306 107.600 C 398.138 107.600,398.000 107.240,398.000 106.800 C 398.000 106.360,397.820 106.000,397.600 106.000 C 397.380 106.000,397.200 105.640,397.200 105.200 C 397.200 104.760,397.020 104.400,396.800 104.400 C 396.580 104.400,396.400 104.040,396.400 103.600 C 396.400 103.160,396.220 102.800,396.000 102.800 C 395.780 102.800,395.600 102.440,395.600 102.000 C 395.600 101.560,395.420 101.200,395.200 101.200 C 394.980 101.200,394.800 100.840,394.800 100.400 C 394.800 99.960,394.620 99.600,394.400 99.600 C 394.180 99.600,394.000 99.240,394.000 98.800 C 394.000 98.360,393.820 98.000,393.600 98.000 C 393.380 98.000,393.200 97.640,393.200 97.200 C 393.200 96.760,393.020 96.400,392.800 96.400 C 392.580 96.400,392.400 96.040,392.400 95.600 C 392.400 95.160,392.220 94.800,392.000 94.800 C 391.780 94.800,391.600 94.474,391.600 94.076 C 391.600 93.679,391.336 93.004,391.013 92.576 C 390.690 92.149,390.420 91.485,390.413 91.100 C 390.406 90.715,390.220 90.400,390.000 90.400 C 389.780 90.400,389.600 90.040,389.600 89.600 C 389.600 89.160,389.420 88.800,389.200 88.800 C 388.980 88.800,388.800 88.440,388.800 88.000 C 388.800 87.560,388.620 87.200,388.400 87.200 C 388.180 87.200,388.000 86.840,388.000 86.400 C 388.000 85.960,387.820 85.600,387.600 85.600 C 387.380 85.600,387.200 85.240,387.200 84.800 C 387.200 84.360,387.020 84.000,386.800 84.000 C 386.580 84.000,386.400 83.640,386.400 83.200 C 386.400 82.760,386.220 82.400,386.000 82.400 C 385.780 82.400,385.600 82.040,385.600 81.600 C 385.600 81.160,385.420 80.800,385.200 80.800 C 384.980 80.800,384.800 80.440,384.800 80.000 C 384.800 79.560,384.620 79.200,384.400 79.200 C 384.180 79.200,384.000 78.840,384.000 78.400 C 384.000 77.960,383.854 77.600,383.675 77.600 C 383.496 77.600,383.102 76.970,382.800 76.200 C 382.498 75.430,382.104 74.800,381.925 74.800 C 381.746 74.800,381.600 74.440,381.600 74.000 C 381.600 73.560,381.420 73.200,381.200 73.200 C 380.980 73.200,380.800 72.840,380.800 72.400 C 380.800 71.960,380.620 71.600,380.400 71.600 C 380.180 71.600,380.000 71.240,380.000 70.800 C 380.000 70.360,379.820 70.000,379.600 70.000 C 379.380 70.000,379.200 69.640,379.200 69.200 C 379.200 68.760,379.020 68.400,378.800 68.400 C 378.580 68.400,378.400 68.040,378.400 67.600 C 378.400 67.160,378.220 66.800,378.000 66.800 C 377.780 66.800,377.600 66.440,377.600 66.000 C 377.600 65.560,377.420 65.200,377.200 65.200 C 376.980 65.200,376.800 64.840,376.800 64.400 C 376.800 63.960,376.620 63.600,376.400 63.600 C 376.180 63.600,376.000 63.240,376.000 62.800 C 376.000 62.360,375.820 62.000,375.600 62.000 C 375.380 62.000,375.200 61.787,375.200 61.526 C 375.200 61.266,374.827 60.281,374.370 59.339 L 373.541 57.625 351.470 57.689 C 339.332 57.724,328.095 57.817,326.500 57.894 M126.217 58.500 C 126.130 58.775,125.964 59.540,125.848 60.200 C 125.649 61.325,125.374 62.615,124.400 67.000 C 123.640 70.418,122.776 74.519,121.998 78.400 C 121.799 79.390,121.456 81.010,121.236 82.000 C 121.015 82.990,120.648 84.700,120.420 85.800 C 120.192 86.900,119.842 88.520,119.643 89.400 C 119.444 90.280,119.091 91.900,118.859 93.000 C 116.726 103.120,115.480 108.919,115.078 110.600 C 114.369 113.566,114.433 138.327,115.157 141.000 C 116.151 144.670,116.807 146.459,117.830 148.291 C 130.294 170.616,161.612 167.760,170.090 143.526 C 170.934 141.111,170.979 140.304,171.093 125.200 C 171.159 116.510,171.399 106.700,171.626 103.400 C 172.159 95.641,172.707 87.956,173.207 81.200 C 173.650 75.227,174.224 67.370,174.632 61.700 L 174.898 58.000 150.636 58.000 C 131.578 58.000,126.341 58.107,126.217 58.500 M225.357 62.500 C 225.499 64.975,225.783 69.250,225.989 72.000 C 228.657 107.654,228.764 109.634,228.915 126.200 C 229.042 140.175,229.099 141.141,229.922 143.526 C 238.302 167.800,269.712 170.606,282.222 148.198 C 283.304 146.260,283.597 145.465,284.625 141.680 C 285.274 139.288,285.445 113.944,284.832 111.000 C 284.648 110.120,284.018 107.150,283.431 104.400 C 282.845 101.650,281.992 97.600,281.536 95.400 C 280.121 88.573,280.012 88.053,279.578 86.100 C 279.346 85.055,279.064 83.570,278.953 82.800 C 278.842 82.030,278.593 81.040,278.400 80.600 C 278.207 80.160,277.958 79.170,277.847 78.400 C 277.736 77.630,277.443 76.100,277.196 75.000 C 276.950 73.900,276.651 72.280,276.533 71.400 C 276.415 70.520,276.156 69.629,275.959 69.420 C 275.762 69.211,275.600 68.367,275.600 67.544 C 275.600 66.721,275.420 65.936,275.200 65.800 C 274.980 65.664,274.800 64.854,274.800 64.000 C 274.800 63.146,274.620 62.336,274.400 62.200 C 274.180 62.064,274.000 61.279,274.000 60.456 C 274.000 57.873,275.287 58.000,249.070 58.000 L 225.099 58.000 225.357 62.500 " stroke="none" fill="#f0322c" fill-rule="evenodd"></path><path id="path1" d="M244.000 197.196 C 150.856 197.423,159.207 197.160,157.328 199.928 C 156.148 201.666,156.201 299.940,157.382 301.894 C 158.950 304.485,152.044 304.289,249.600 304.512 L 338.600 304.715 340.086 303.892 C 343.216 302.158,342.987 306.130,343.105 251.344 C 343.207 203.706,343.190 202.443,342.431 200.672 C 341.141 197.662,338.786 196.777,332.400 196.902 C 329.870 196.952,290.090 197.084,244.000 197.196 M56.213 197.491 C 54.536 197.744,52.805 199.090,52.155 200.647 C 51.689 201.762,51.600 213.285,51.600 272.587 L 51.600 343.200 91.800 343.200 L 132.000 343.200 132.000 272.354 L 132.000 201.509 131.149 199.996 C 129.606 197.250,131.850 197.405,92.800 197.356 C 73.330 197.331,56.866 197.392,56.213 197.491 M88.400 270.000 L 88.400 342.000 70.400 342.000 L 52.400 342.000 52.400 271.774 C 52.400 221.725,52.526 201.296,52.838 200.674 C 53.078 200.193,53.753 199.396,54.338 198.902 L 55.400 198.004 71.900 198.002 L 88.400 198.000 88.400 270.000 M299.200 250.800 L 299.200 303.600 229.431 303.600 L 159.662 303.600 158.431 302.369 L 157.200 301.138 157.200 250.983 L 157.200 200.827 158.613 199.413 L 160.027 198.000 229.613 198.000 L 299.200 198.000 299.200 250.800 M112.570 257.545 C 115.695 259.321,117.078 271.434,114.682 276.037 C 112.389 280.444,106.305 280.477,104.151 276.094 C 103.226 274.210,102.862 264.940,103.586 261.704 C 104.583 257.250,108.700 255.344,112.570 257.545 M371.900 342.418 C 371.253 343.141,370.638 343.200,363.800 343.200 L 356.400 343.200 356.400 361.200 L 356.400 379.200 377.624 379.200 C 391.671 379.200,398.764 379.065,398.600 378.800 C 398.464 378.580,398.554 378.400,398.800 378.400 C 399.046 378.400,399.148 378.239,399.026 378.042 C 398.904 377.845,399.074 377.581,399.402 377.454 C 399.915 377.258,400.000 375.439,400.000 364.663 C 400.000 352.251,399.837 349.406,399.151 349.830 C 398.958 349.950,398.800 349.677,398.800 349.224 C 398.800 348.771,398.620 348.400,398.400 348.400 C 398.180 348.400,397.994 348.085,397.987 347.700 C 397.970 346.739,397.107 345.694,396.500 345.898 C 396.225 345.991,396.000 345.767,396.000 345.400 C 396.000 345.033,395.777 344.808,395.504 344.899 C 395.231 344.990,394.678 344.645,394.275 344.132 C 393.872 343.619,393.285 343.200,392.971 343.200 C 392.657 343.200,392.397 342.975,392.394 342.700 C 392.390 342.367,392.258 342.400,392.000 342.800 C 391.701 343.263,391.611 343.276,391.606 342.857 C 391.603 342.559,391.352 342.410,391.049 342.526 C 390.746 342.642,390.269 342.527,389.990 342.269 C 389.594 341.903,389.553 341.924,389.803 342.362 C 390.038 342.774,389.976 342.833,389.569 342.581 C 387.774 341.472,372.870 341.334,371.900 342.418 " stroke="none" fill="#0cb4c4" fill-rule="evenodd"></path><path id="path2" d="M54.338 198.902 C 53.753 199.396,53.078 200.193,52.838 200.674 C 52.526 201.296,52.400 221.725,52.400 271.774 L 52.400 342.000 70.400 342.000 L 88.400 342.000 88.400 270.000 L 88.400 198.000 71.900 198.002 L 55.400 198.004 54.338 198.902 M158.613 199.413 L 157.200 200.827 157.200 250.983 L 157.200 301.138 158.431 302.369 L 159.662 303.600 229.431 303.600 L 299.200 303.600 299.200 250.800 L 299.200 198.000 229.613 198.000 L 160.027 198.000 158.613 199.413 " stroke="none" fill="#05c4cc" fill-rule="evenodd"></path><path id="path3" d="M31.800 21.200 C 31.664 21.420,31.287 21.600,30.963 21.600 C 30.228 21.600,27.600 24.184,27.600 24.907 C 27.600 25.200,27.418 25.622,27.195 25.845 C 26.932 26.108,26.827 31.778,26.895 42.025 L 27.000 57.800 51.700 57.903 C 65.285 57.960,76.400 58.097,76.400 58.208 C 76.400 58.320,76.220 58.768,76.000 59.205 C 75.780 59.642,75.420 60.358,75.200 60.795 C 74.980 61.232,74.800 61.864,74.800 62.200 C 74.800 62.536,74.620 63.168,74.400 63.605 C 74.180 64.042,73.820 64.758,73.600 65.195 C 73.380 65.632,73.200 66.264,73.200 66.600 C 73.200 66.936,73.020 67.568,72.800 68.005 C 72.580 68.442,72.220 69.158,72.000 69.595 C 71.780 70.032,71.600 70.664,71.600 71.000 C 71.600 71.336,71.420 71.968,71.200 72.405 C 70.980 72.842,70.620 73.558,70.400 73.995 C 70.180 74.432,70.000 75.064,70.000 75.400 C 70.000 75.736,69.834 76.323,69.632 76.705 C 68.956 77.981,64.793 89.678,64.812 90.246 C 64.834 90.881,65.483 89.451,66.376 86.800 C 66.858 85.370,67.403 83.840,67.586 83.400 C 67.769 82.960,68.136 81.970,68.400 81.200 C 68.664 80.430,69.025 79.440,69.201 79.000 C 69.502 78.249,70.070 76.709,72.000 71.400 C 72.440 70.190,73.149 68.255,73.575 67.100 C 74.001 65.945,74.939 63.335,75.659 61.300 L 76.968 57.600 101.284 57.600 L 125.600 57.600 125.600 58.654 C 125.600 59.233,125.423 60.358,125.206 61.154 C 124.579 63.460,122.000 75.666,122.000 76.330 C 122.000 77.550,122.528 76.356,122.894 74.308 C 123.265 72.230,123.614 70.538,124.400 67.000 C 125.449 62.282,125.658 61.289,125.919 59.800 L 126.200 58.200 150.549 58.097 L 174.898 57.994 174.632 61.697 C 174.226 67.331,173.652 75.200,173.207 81.200 C 172.987 84.170,172.634 89.030,172.423 92.000 C 172.211 94.970,171.845 100.100,171.609 103.400 C 171.209 108.998,171.065 135.998,171.433 136.367 C 171.525 136.458,171.610 130.608,171.622 123.367 C 171.642 110.929,171.791 107.169,172.814 93.200 C 173.048 90.010,173.395 85.150,173.587 82.400 C 173.779 79.650,174.142 74.790,174.394 71.600 C 174.646 68.410,174.975 64.000,175.126 61.800 L 175.400 57.800 199.800 57.800 L 224.200 57.800 224.483 59.600 C 224.639 60.590,224.965 64.460,225.208 68.200 C 225.452 71.940,225.809 76.800,226.003 79.000 C 226.196 81.200,226.555 86.060,226.800 89.800 C 227.045 93.540,227.438 98.490,227.675 100.800 C 227.911 103.110,228.229 112.290,228.381 121.200 L 228.659 137.400 228.777 124.600 C 228.842 117.560,228.863 111.632,228.823 111.427 C 228.784 111.222,228.575 108.342,228.359 105.027 C 227.754 95.757,227.278 89.118,225.991 72.000 C 225.784 69.250,225.499 64.975,225.357 62.500 L 225.099 58.000 249.070 58.000 C 275.287 58.000,274.000 57.873,274.000 60.456 C 274.000 61.279,274.180 62.064,274.400 62.200 C 274.620 62.336,274.800 63.146,274.800 64.000 C 274.800 64.854,274.980 65.664,275.200 65.800 C 275.420 65.936,275.600 66.746,275.600 67.600 C 275.600 68.454,275.780 69.264,276.000 69.400 C 276.220 69.536,276.400 69.571,276.400 69.478 C 276.400 69.237,275.741 65.985,274.844 61.803 C 274.420 59.824,274.157 58.069,274.260 57.903 C 274.363 57.736,285.331 57.600,298.634 57.600 L 322.820 57.600 323.248 58.700 C 323.907 60.390,326.770 68.379,327.442 70.400 C 327.771 71.390,328.194 72.560,328.383 73.000 C 328.911 74.233,330.058 77.287,330.411 78.400 C 330.586 78.950,331.297 80.930,331.991 82.800 C 332.685 84.670,333.521 87.010,333.849 88.000 C 334.178 88.990,334.530 90.051,334.632 90.357 C 334.735 90.664,334.920 90.813,335.043 90.690 C 335.266 90.468,330.515 76.731,328.787 72.600 C 328.603 72.160,328.224 71.080,327.945 70.200 C 327.665 69.320,327.293 68.429,327.118 68.220 C 326.943 68.011,326.800 67.514,326.800 67.115 C 326.800 66.716,326.592 65.987,326.338 65.495 C 325.366 63.616,325.200 63.193,325.200 62.600 C 325.200 62.264,325.041 61.677,324.847 61.295 C 323.768 59.175,323.496 58.371,323.766 58.101 C 323.979 57.888,366.226 57.446,372.700 57.589 C 373.340 57.603,373.439 26.195,372.800 25.800 C 372.580 25.664,372.400 25.285,372.400 24.958 C 372.400 24.183,370.825 22.625,369.014 21.608 C 367.380 20.690,32.365 20.285,31.800 21.200 M276.584 71.400 C 276.827 73.770,277.437 76.771,277.737 77.071 C 278.168 77.501,278.020 76.385,277.198 73.000 C 276.770 71.240,276.494 70.520,276.584 71.400 M121.441 78.727 C 121.265 79.677,121.220 80.553,121.341 80.674 C 121.671 81.005,122.088 79.017,121.914 77.941 C 121.802 77.246,121.678 77.452,121.441 78.727 M278.000 78.910 C 278.000 79.703,278.191 80.471,278.426 80.616 C 278.715 80.795,278.762 80.388,278.572 79.339 C 278.203 77.297,278.000 77.145,278.000 78.910 M120.653 82.541 C 120.486 83.388,120.441 84.175,120.555 84.288 C 120.858 84.591,121.297 82.585,121.114 81.732 C 121.020 81.290,120.837 81.611,120.653 82.541 M278.846 82.600 C 278.827 83.260,278.987 84.070,279.200 84.400 C 279.690 85.158,279.690 83.930,279.200 82.400 C 278.886 81.420,278.879 81.424,278.846 82.600 M119.819 86.327 C 119.655 87.277,119.617 88.150,119.734 88.268 C 120.026 88.559,120.526 85.773,120.300 85.121 C 120.200 84.835,119.984 85.377,119.819 86.327 M279.646 86.400 C 279.627 86.950,279.787 87.670,280.000 88.000 C 280.494 88.764,280.494 87.942,280.000 86.400 L 279.680 85.400 279.646 86.400 M118.978 90.178 C 118.827 90.981,118.804 91.737,118.926 91.860 C 119.048 91.982,119.272 91.425,119.422 90.622 C 119.573 89.819,119.596 89.063,119.474 88.940 C 119.352 88.818,119.128 89.375,118.978 90.178 M280.468 90.000 C 280.462 90.550,280.611 91.360,280.800 91.800 L 281.144 92.600 281.132 91.800 C 281.126 91.360,280.976 90.550,280.800 90.000 L 280.480 89.000 280.468 90.000 M63.815 92.615 C 63.430 93.624,63.198 94.532,63.300 94.633 C 63.401 94.735,63.800 93.993,64.185 92.985 C 64.570 91.976,64.802 91.068,64.700 90.967 C 64.599 90.865,64.200 91.607,63.815 92.615 M335.200 91.435 C 335.200 91.900,337.141 97.275,337.405 97.538 C 337.821 97.954,337.560 96.887,336.595 94.227 C 335.614 91.521,335.200 90.693,335.200 91.435 M118.235 93.800 C 118.072 94.680,117.772 95.922,117.569 96.560 C 117.366 97.198,117.218 98.188,117.241 98.760 C 117.264 99.332,117.629 98.364,118.053 96.609 C 118.477 94.854,118.758 93.144,118.677 92.809 C 118.597 92.474,118.398 92.920,118.235 93.800 M281.268 93.800 C 281.274 94.240,281.424 95.050,281.600 95.600 L 281.920 96.600 281.932 95.600 C 281.938 95.050,281.789 94.240,281.600 93.800 L 281.256 93.000 281.268 93.800 M62.600 96.000 C 62.450 96.473,62.417 96.950,62.527 97.060 C 62.637 97.170,62.850 96.873,63.000 96.400 C 63.150 95.927,63.183 95.450,63.073 95.340 C 62.963 95.230,62.750 95.527,62.600 96.000 M282.032 97.230 C 281.990 98.050,283.878 106.986,284.475 108.800 C 284.764 109.676,285.036 115.435,285.203 124.200 L 285.469 138.200 285.411 124.000 C 285.374 114.958,285.196 109.364,284.920 108.600 C 284.681 107.940,284.270 106.320,284.005 105.000 C 282.634 98.171,282.092 96.034,282.032 97.230 M61.911 97.873 C 61.818 98.053,61.498 99.010,61.201 100.000 C 60.904 100.990,60.512 101.971,60.330 102.180 C 60.149 102.389,60.000 102.886,60.000 103.285 C 60.000 103.684,59.820 104.368,59.600 104.805 C 59.380 105.242,59.020 105.958,58.800 106.395 C 58.580 106.832,58.400 107.464,58.400 107.800 C 58.400 108.393,58.234 108.816,57.262 110.695 C 56.816 111.559,56.606 113.128,56.988 112.745 C 57.173 112.560,58.913 107.829,61.223 101.234 C 62.201 98.441,62.582 96.577,61.911 97.873 M337.600 98.157 C 337.600 99.066,339.803 104.493,339.924 103.881 C 340.002 103.485,339.904 102.945,339.705 102.681 C 339.507 102.416,339.100 101.390,338.802 100.400 C 338.300 98.731,337.600 97.425,337.600 98.157 M116.618 101.400 C 116.461 102.280,116.188 103.540,116.012 104.200 C 115.836 104.860,115.469 106.480,115.197 107.800 C 114.925 109.120,114.546 110.830,114.354 111.600 C 113.948 113.224,113.929 134.130,114.330 136.800 C 114.478 137.790,114.536 133.051,114.457 126.268 C 114.364 118.282,114.466 113.349,114.745 112.268 C 115.759 108.344,117.242 100.731,117.080 100.285 C 116.982 100.018,116.774 100.520,116.618 101.400 M340.206 105.650 C 340.367 106.172,340.876 107.500,341.337 108.600 C 342.111 110.450,342.192 111.607,342.410 124.000 L 342.646 137.400 342.623 123.719 C 342.606 113.334,342.480 109.919,342.100 109.539 C 341.825 109.265,341.600 108.637,341.600 108.144 C 341.600 107.651,341.420 107.136,341.200 107.000 C 340.980 106.864,340.800 106.414,340.800 106.000 C 340.800 105.586,340.601 105.124,340.357 104.974 C 340.053 104.786,340.006 104.998,340.206 105.650 M56.872 138.867 C 56.832 139.894,56.696 141.064,56.570 141.467 C 56.354 142.154,56.368 142.156,56.792 141.497 C 57.040 141.110,57.176 139.940,57.094 138.897 L 56.944 137.000 56.872 138.867 M170.860 140.067 C 170.827 140.654,170.696 141.464,170.570 141.867 C 170.352 142.560,170.365 142.561,170.795 141.890 C 171.046 141.499,171.177 140.689,171.086 140.090 L 170.920 139.000 170.860 140.067 M228.806 140.233 C 228.809 140.875,228.984 141.670,229.195 142.000 C 229.455 142.409,229.499 142.090,229.332 141.000 C 229.029 139.023,228.798 138.686,228.806 140.233 M342.854 140.505 C 342.825 141.333,342.962 142.323,343.161 142.705 C 343.360 143.087,343.753 144.210,344.036 145.200 C 344.318 146.190,344.838 147.450,345.191 148.000 C 345.545 148.550,346.186 149.690,346.617 150.534 C 348.196 153.627,353.981 158.943,357.800 160.812 C 358.460 161.135,359.090 161.497,359.200 161.616 C 359.310 161.736,360.210 162.072,361.200 162.362 C 362.190 162.653,363.360 163.038,363.800 163.216 C 364.240 163.395,365.410 163.637,366.400 163.753 C 367.390 163.869,369.010 164.073,370.000 164.207 C 371.361 164.391,371.637 164.345,371.130 164.022 C 370.762 163.787,369.322 163.484,367.930 163.350 C 355.895 162.192,345.193 152.134,343.083 140.000 C 342.959 139.285,342.893 139.430,342.854 140.505 M114.834 141.000 C 114.822 141.440,114.987 142.070,115.200 142.400 C 115.714 143.195,115.714 142.196,115.200 141.000 L 114.856 140.200 114.834 141.000 M284.629 141.429 C 284.481 142.015,284.451 142.584,284.561 142.694 C 284.671 142.804,284.881 142.415,285.029 141.829 C 285.176 141.242,285.206 140.673,285.096 140.563 C 284.986 140.453,284.776 140.842,284.629 141.429 M56.046 142.667 C 56.021 142.924,55.884 143.464,55.741 143.867 C 55.540 144.436,55.594 144.497,55.979 144.142 C 56.252 143.891,56.389 143.351,56.284 142.942 C 56.179 142.534,56.072 142.410,56.046 142.667 M168.678 147.005 C 168.312 147.772,168.095 148.400,168.196 148.400 C 168.470 148.400,169.684 145.951,169.501 145.768 C 169.414 145.681,169.044 146.238,168.678 147.005 M230.400 145.753 C 230.400 146.182,231.590 148.400,231.821 148.400 C 231.931 148.400,231.723 147.815,231.359 147.100 C 230.617 145.640,230.400 145.336,230.400 145.753 M53.580 148.861 C 53.098 149.818,52.083 151.365,51.325 152.300 C 49.917 154.036,49.845 154.733,51.242 153.100 C 52.363 151.789,54.866 147.532,54.645 147.311 C 54.541 147.207,54.062 147.905,53.580 148.861 M118.563 150.329 C 118.884 150.950,119.460 151.715,119.842 152.029 C 120.234 152.352,120.049 151.861,119.415 150.900 C 118.132 148.955,117.704 148.668,118.563 150.329 M280.585 150.900 C 279.951 151.861,279.766 152.352,280.158 152.029 C 280.818 151.487,282.196 149.200,281.863 149.200 C 281.777 149.200,281.202 149.965,280.585 150.900 M165.883 151.800 C 165.269 152.570,164.889 153.200,165.039 153.200 C 165.336 153.200,166.174 152.212,166.821 151.100 C 167.457 150.007,167.103 150.271,165.883 151.800 M233.149 151.000 C 233.810 152.209,234.771 153.363,234.957 153.171 C 235.048 153.077,234.580 152.370,233.917 151.600 C 233.254 150.830,232.909 150.560,233.149 151.000 M121.429 154.038 C 122.073 154.829,122.681 155.408,122.779 155.325 C 122.878 155.242,122.351 154.595,121.609 153.887 L 120.258 152.600 121.429 154.038 M278.204 153.996 C 277.574 154.654,277.135 155.256,277.229 155.334 C 277.323 155.412,277.913 154.874,278.539 154.138 C 279.954 152.477,279.745 152.388,278.204 153.996 M161.800 156.276 C 159.882 158.084,159.630 158.406,161.000 157.298 C 162.897 155.764,165.136 153.579,164.770 153.619 C 164.676 153.629,163.340 154.825,161.800 156.276 M236.000 154.563 C 237.056 155.742,240.800 158.984,240.800 158.719 C 240.800 158.633,239.495 157.412,237.900 156.004 C 236.305 154.597,235.450 153.949,236.000 154.563 M123.200 155.761 C 123.200 156.331,128.689 160.400,129.459 160.400 C 129.636 160.400,128.796 159.755,127.591 158.967 C 126.386 158.178,124.905 157.064,124.300 156.492 C 123.695 155.919,123.200 155.590,123.200 155.761 M275.782 156.420 C 275.371 156.874,273.949 157.955,272.621 158.822 C 271.293 159.690,270.355 160.400,270.536 160.400 C 271.339 160.400,277.064 156.131,276.721 155.788 C 276.615 155.682,276.192 155.966,275.782 156.420 M46.362 157.446 C 46.068 157.801,44.875 158.628,43.713 159.284 C 41.294 160.649,40.852 161.199,43.100 160.048 C 44.855 159.149,47.895 156.800,47.304 156.800 C 47.081 156.800,46.657 157.091,46.362 157.446 M155.412 160.621 C 154.979 160.948,153.926 161.405,153.072 161.634 C 152.218 161.864,151.593 162.126,151.682 162.215 C 151.977 162.510,154.577 161.620,155.800 160.805 C 156.460 160.365,156.820 160.010,156.600 160.015 C 156.380 160.021,155.846 160.293,155.412 160.621 M244.200 160.805 C 245.423 161.620,248.023 162.510,248.318 162.215 C 248.407 162.126,247.782 161.864,246.928 161.634 C 246.074 161.405,245.021 160.948,244.588 160.621 C 244.154 160.293,243.620 160.021,243.400 160.015 C 243.180 160.010,243.540 160.365,244.200 160.805 M130.582 160.984 C 131.402 161.639,134.034 162.499,134.325 162.209 C 134.418 162.115,133.978 161.915,133.347 161.763 C 132.716 161.612,131.660 161.234,131.000 160.925 C 129.898 160.407,129.864 160.412,130.582 160.984 M269.200 160.806 C 268.870 161.023,267.907 161.392,267.060 161.626 C 266.212 161.861,265.593 162.126,265.682 162.215 C 265.956 162.489,268.588 161.644,269.418 161.016 C 270.294 160.354,270.129 160.196,269.200 160.806 M35.200 162.818 C 34.762 163.115,34.924 163.152,35.800 162.956 C 37.271 162.627,37.590 162.398,36.567 162.406 C 36.145 162.409,35.530 162.595,35.200 162.818 M149.400 162.800 C 148.896 163.017,148.822 163.144,149.200 163.144 C 149.530 163.144,150.160 162.989,150.600 162.800 C 151.104 162.583,151.178 162.456,150.800 162.456 C 150.470 162.456,149.840 162.611,149.400 162.800 M249.400 162.800 C 249.840 162.989,250.470 163.144,250.800 163.144 C 251.178 163.144,251.104 163.017,250.600 162.800 C 250.160 162.611,249.530 162.456,249.200 162.456 C 248.822 162.456,248.896 162.583,249.400 162.800 M29.800 163.485 C 29.360 163.591,28.820 163.867,28.600 164.098 C 28.328 164.383,28.360 164.427,28.701 164.234 C 28.977 164.079,30.327 163.805,31.701 163.626 C 33.883 163.343,33.972 163.301,32.400 163.297 C 31.410 163.295,30.240 163.379,29.800 163.485 M140.200 163.657 C 141.740 163.822,144.260 163.821,145.800 163.657 C 148.152 163.405,147.703 163.357,143.000 163.358 C 138.298 163.359,137.849 163.407,140.200 163.657 M254.200 163.657 C 255.740 163.822,258.260 163.821,259.800 163.657 C 262.152 163.405,261.703 163.357,257.000 163.358 C 252.298 163.359,251.849 163.407,254.200 163.657 M9.416 342.397 C 8.546 342.564,7.766 342.903,7.683 343.151 C 7.601 343.398,7.255 343.600,6.914 343.600 C 5.745 343.600,3.722 345.191,1.962 347.494 L 0.200 349.800 0.077 363.663 L -0.047 377.525 0.852 378.363 L 1.751 379.200 179.075 379.200 L 356.400 379.200 356.400 361.200 L 356.400 343.200 363.724 343.200 C 369.605 343.200,371.200 343.082,371.824 342.603 C 372.518 342.069,371.710 342.021,364.200 342.155 C 316.354 343.005,29.077 343.171,28.568 342.349 C 28.307 341.926,11.646 341.968,9.416 342.397 " stroke="none" fill="#edb64e" fill-rule="evenodd"></path><path id="path4" d="M75.659 61.300 C 74.939 63.335,74.001 65.945,73.575 67.100 C 73.149 68.255,72.440 70.190,72.000 71.400 C 70.070 76.709,69.502 78.249,69.201 79.000 C 69.025 79.440,68.664 80.430,68.400 81.200 C 68.136 81.970,67.766 82.960,67.580 83.400 C 67.393 83.840,66.973 85.010,66.647 86.000 C 66.320 86.990,65.489 89.330,64.801 91.200 C 63.547 94.605,61.021 101.722,60.399 103.600 C 60.216 104.150,59.422 106.375,58.634 108.545 L 57.200 112.490 57.200 126.516 C 57.200 139.981,57.064 141.891,55.951 144.095 C 55.758 144.477,55.600 145.051,55.600 145.370 C 55.600 146.077,53.470 150.080,52.071 152.000 C 47.700 158.002,38.151 163.600,32.285 163.600 C 31.663 163.600,30.355 163.801,29.377 164.047 L 27.600 164.495 27.600 253.103 C 27.600 337.023,27.637 341.740,28.300 342.243 C 28.843 342.655,31.538 342.777,40.300 342.787 L 51.600 342.800 51.600 272.387 C 51.600 195.065,51.429 200.232,54.055 198.359 L 55.400 197.400 91.600 197.400 C 131.567 197.400,129.619 197.273,131.140 199.978 L 132.000 201.509 132.000 272.194 L 132.000 342.878 243.300 342.634 C 304.515 342.500,358.605 342.287,363.500 342.161 L 372.400 341.932 372.400 253.217 L 372.400 164.502 370.500 164.266 C 369.455 164.137,367.700 163.921,366.600 163.786 C 365.500 163.652,364.240 163.395,363.800 163.216 C 363.360 163.038,362.190 162.653,361.200 162.362 C 360.210 162.072,359.310 161.736,359.200 161.616 C 359.090 161.497,358.460 161.135,357.800 160.812 C 353.981 158.943,348.196 153.627,346.617 150.534 C 346.186 149.690,345.545 148.550,345.191 148.000 C 344.838 147.450,344.318 146.190,344.036 145.200 C 343.753 144.210,343.325 143.040,343.083 142.600 C 342.795 142.074,342.594 136.659,342.496 126.800 L 342.348 111.800 340.792 107.400 C 339.936 104.980,338.587 101.200,337.794 99.000 C 337.000 96.800,336.083 94.190,335.756 93.200 C 335.428 92.210,334.998 91.040,334.800 90.600 C 334.602 90.160,334.173 88.990,333.847 88.000 C 333.520 87.010,332.685 84.670,331.991 82.800 C 331.297 80.930,330.586 78.950,330.411 78.400 C 330.058 77.287,328.911 74.233,328.383 73.000 C 328.194 72.560,327.771 71.390,327.442 70.400 C 326.770 68.379,323.907 60.390,323.248 58.700 L 322.820 57.600 298.634 57.600 C 285.331 57.600,274.363 57.736,274.260 57.903 C 274.083 58.189,274.334 59.506,276.377 69.000 C 276.851 71.200,277.854 75.970,278.605 79.600 C 279.357 83.230,280.342 87.910,280.795 90.000 C 281.247 92.090,281.811 94.700,282.049 95.800 C 282.286 96.900,282.643 98.520,282.841 99.400 C 283.040 100.280,283.381 101.900,283.600 103.000 C 283.819 104.100,284.180 105.810,284.402 106.800 C 285.563 111.962,285.677 114.153,285.486 127.566 C 285.238 145.013,284.168 148.578,277.004 155.808 C 264.319 168.612,240.445 165.134,232.096 149.265 C 228.761 142.927,228.786 143.107,228.402 122.800 C 228.213 112.790,227.875 102.800,227.651 100.600 C 227.427 98.400,227.044 93.540,226.799 89.800 C 226.555 86.060,226.196 81.200,226.003 79.000 C 225.809 76.800,225.452 71.940,225.208 68.200 C 224.965 64.460,224.639 60.590,224.483 59.600 L 224.200 57.800 199.800 57.800 L 175.400 57.800 175.126 61.800 C 174.975 64.000,174.645 68.410,174.391 71.600 C 173.931 77.397,173.658 81.257,172.843 93.531 C 172.604 97.123,172.303 100.233,172.173 100.443 C 172.044 100.653,171.781 109.864,171.590 120.912 C 171.243 140.983,171.242 141.002,170.225 143.893 C 163.487 163.061,140.681 170.032,125.200 157.655 C 120.858 154.184,117.503 149.436,115.835 144.400 C 114.000 138.862,113.208 117.049,114.608 110.600 C 114.942 109.060,115.410 106.900,115.648 105.800 C 115.886 104.700,116.243 103.080,116.441 102.200 C 116.640 101.320,116.981 99.700,117.200 98.600 C 117.419 97.500,117.760 95.880,117.959 95.000 C 118.344 93.289,119.063 90.008,119.622 87.400 C 119.811 86.520,120.774 81.930,121.762 77.200 C 122.750 72.470,123.939 66.890,124.404 64.800 C 124.868 62.710,125.351 60.235,125.476 59.300 L 125.704 57.600 101.336 57.600 L 76.968 57.600 75.659 61.300 M338.400 197.318 C 343.669 199.222,343.227 194.148,343.105 251.344 C 342.987 306.130,343.216 302.158,340.086 303.892 L 338.600 304.715 249.600 304.512 C 152.044 304.289,158.950 304.485,157.382 301.894 C 156.201 299.940,156.148 201.666,157.328 199.928 C 159.207 197.160,150.856 197.423,244.000 197.196 C 290.090 197.084,329.870 196.952,332.400 196.902 C 335.326 196.845,337.510 196.996,338.400 197.318 M107.726 256.837 C 104.138 257.886,103.037 260.939,103.267 269.202 C 103.472 276.557,104.599 278.631,108.800 279.384 C 113.489 280.225,115.600 276.691,115.600 268.000 C 115.600 258.784,113.115 255.260,107.726 256.837 " stroke="none" fill="#f0f0f0" fill-rule="evenodd"></path></g></svg>